# Blender v2.79 (sub 0) OBJ File: ''
# www.blender.org
mtllib grenadelauncher.mtl
o resticle
v 0.031250 0.062500 0.593750
v 0.031250 0.187500 0.593750
v -0.031250 0.187500 0.593750
v -0.031250 0.062500 0.593750
v -0.031250 0.187500 0.593750
v 0.031250 0.187500 0.593750
v 0.031250 0.062500 0.593750
v -0.031250 0.062500 0.593750
vt 0.968750 0.468750
vt 0.968750 0.718750
vt 0.843750 0.718750
vt 0.843750 0.468750
vt 0.968750 1.000000
vt 0.843750 1.000000
vt 0.843750 0.750000
vt 0.968750 0.750000
vn 0.0000 -0.0000 1.0000
vn 0.0000 0.0000 -1.0000
usemtl m_96e3edca-1fbe-a6fe-163c-8ff7fc34ee07
s 1
f 1/1/1 2/2/1 3/3/1 4/4/1
f 5/5/2 6/6/2 7/7/2 8/8/2
o slide
v 0.023438 -0.000000 0.625000
v 0.039062 -0.020833 0.625000
v 0.039062 -0.020833 0.437500
v 0.023438 -0.000000 0.437500
v -0.023438 -0.000000 0.437500
v -0.039062 -0.020833 0.437500
v -0.039062 -0.020833 0.625000
v -0.023438 -0.000000 0.625000
v 0.015625 -0.070313 0.453125
v 0.015625 -0.070313 0.609375
v -0.015625 -0.070313 0.609375
v -0.015625 -0.070313 0.453125
v -0.039062 -0.041667 0.625000
v -0.039062 -0.041667 0.437500
v 0.039062 -0.041667 0.437500
v 0.039062 -0.041667 0.625000
vt 0.250000 0.375000
vt 0.250000 0.343750
vt 0.343750 0.343750
vt 0.343750 0.375000
vt 0.625000 0.750000
vt 0.625000 0.718750
vt 0.718750 0.718750
vt 0.718750 0.750000
vt 0.375000 0.312500
vt 0.406250 0.312500
vt 0.406250 0.406250
vt 0.375000 0.406250
vt 0.093750 0.281250
vt 0.093750 0.375000
vt 0.062500 0.375000
vt 0.062500 0.281250
vt 0.707031 0.375000
vt 0.699219 0.364584
vt 0.738281 0.364584
vt 0.730469 0.375000
vt 0.582031 0.312500
vt 0.574219 0.302084
vt 0.613281 0.302084
vt 0.605469 0.312500
vt 0.710938 0.656250
vt 0.718750 0.687500
vt 0.625000 0.687500
vt 0.632812 0.656250
vt 0.656250 0.468750
vt 0.656250 0.500000
vt 0.562500 0.500000
vt 0.562500 0.468750
vt 0.601562 0.275350
vt 0.613281 0.291666
vt 0.574219 0.291666
vt 0.585938 0.275350
vt 0.710938 0.593750
vt 0.718750 0.625000
vt 0.625000 0.625000
vt 0.632812 0.593750
vt 0.218750 0.343750
vt 0.218750 0.375000
vt 0.125000 0.375000
vt 0.125000 0.343750
vt 0.726562 0.337853
vt 0.738281 0.354166
vt 0.699219 0.354166
vt 0.710938 0.337853
vn 0.8000 0.6000 0.0000
vn -0.8000 0.6000 0.0000
vn 0.0000 1.0000 0.0000
vn 0.0000 -1.0000 -0.0000
vn 0.0000 0.0000 1.0000
vn 0.0000 0.0000 -1.0000
vn -0.7740 -0.6332 -0.0000
vn -1.0000 0.0000 0.0000
vn 0.0000 -0.4789 -0.8779
vn 0.7740 -0.6332 -0.0000
vn 1.0000 0.0000 0.0000
vn 0.0000 -0.4789 0.8779
usemtl m_96e3edca-1fbe-a6fe-163c-8ff7fc34ee07
s 1
f 9/9/3 10/10/3 11/11/3 12/12/3
f 13/13/4 14/14/4 15/15/4 16/16/4
f 16/17/5 9/18/5 12/19/5 13/20/5
f 17/21/6 18/22/6 19/23/6 20/24/6
f 16/25/7 15/26/7 10/27/7 9/28/7
f 12/29/8 11/30/8 14/31/8 13/32/8
f 19/33/9 21/34/9 22/35/9 20/36/9
f 21/37/10 15/38/10 14/39/10 22/40/10
f 20/41/11 22/42/11 23/43/11 17/44/11
f 22/42/8 14/31/8 11/30/8 23/43/8
f 17/45/12 23/46/12 24/47/12 18/48/12
f 23/49/13 11/50/13 10/51/13 24/52/13
f 18/53/14 24/54/14 21/55/14 19/56/14
f 24/54/7 10/27/7 15/26/7 21/55/7
o cuboid
v 0.031250 0.062500 0.000000
v 0.031250 0.062500 0.250000
v 0.062500 0.031250 0.250000
v 0.062500 0.031250 0.000000
v -0.062500 0.031250 0.250000
v -0.031250 0.062500 0.250000
v -0.031250 0.062500 0.000000
v -0.062500 0.031250 0.000000
v 0.062500 0.000000 0.000000
v 0.062500 -0.000000 0.250000
v -0.062500 -0.000000 0.250000
v -0.062500 0.000000 0.000000
v 0.015625 -0.031250 -0.062500
v 0.015625 -0.031250 -0.000000
v -0.015625 -0.031250 -0.000000
v -0.015625 -0.031250 -0.062500
v -0.015625 0.000000 -0.062500
v 0.015625 0.000000 -0.062500
v 0.031250 0.000000 0.000000
v 0.046875 -0.000000 0.062500
v 0.046875 -0.062500 0.062500
v 0.031250 -0.031250 -0.000000
v -0.046875 -0.062500 0.062500
v -0.046875 -0.000000 0.062500
v -0.031250 0.000000 0.000000
v -0.031250 -0.031250 -0.000000
v 0.062500 -0.000000 0.062500
v 0.062500 -0.000000 0.218750
v 0.062500 -0.062500 0.218750
v 0.062500 -0.062500 0.062500
v -0.062500 -0.062500 0.218750
v -0.062500 -0.000000 0.218750
v -0.062500 -0.000000 0.062500
v -0.062500 -0.062500 0.062500
v 0.046875 -0.062500 0.250000
v 0.046875 -0.000000 0.250000
v -0.046875 -0.000000 0.250000
v -0.046875 -0.062500 0.250000
v 0.031250 0.046875 -0.062500
v 0.031250 0.062500 0.000000
v 0.031250 0.000000 0.000000
v 0.031250 0.000000 -0.062500
v -0.031250 0.000000 0.000000
v -0.031250 0.062500 0.000000
v -0.031250 0.046875 -0.062500
v -0.031250 0.000000 -0.062500
v 0.031250 0.031250 -0.125000
v 0.031250 0.046875 -0.062500
v 0.031250 0.000000 -0.062500
v 0.031250 -0.031250 -0.125000
v -0.031250 0.000000 -0.062500
v -0.031250 0.046875 -0.062500
v -0.031250 0.031250 -0.125000
v -0.031250 -0.031250 -0.125000
v 0.015625 0.031250 -0.375000
v 0.031250 0.062500 -0.187500
v 0.031250 -0.062500 -0.187500
v 0.015625 -0.093750 -0.343750
v -0.031250 -0.062500 -0.187500
v -0.031250 0.062500 -0.187500
v -0.015625 0.031250 -0.375000
v -0.015625 -0.093750 -0.343750
v 0.031250 0.062500 -0.187500
v 0.031250 0.031250 -0.125000
v 0.031250 -0.031250 -0.125000
v 0.031250 -0.062500 -0.187500
v -0.031250 -0.031250 -0.125000
v -0.031250 0.031250 -0.125000
v -0.031250 0.062500 -0.187500
v -0.031250 -0.062500 -0.187500
v 0.015625 0.062500 0.687500
v 0.031250 0.041667 0.687500
v 0.031250 0.041667 0.250000
v 0.015625 0.062500 0.250000
v -0.015625 0.062500 0.250000
v -0.031250 0.041667 0.250000
v -0.031250 0.041667 0.687500
v -0.015625 0.062500 0.687500
v 0.015625 -0.000000 0.250000
v 0.015625 -0.000000 0.687500
v -0.015625 -0.000000 0.687500
v -0.015625 -0.000000 0.250000
v -0.031250 0.020833 0.687500
v -0.031250 0.020833 0.250000
v 0.031250 0.020833 0.250000
v 0.031250 0.020833 0.687500
v 0.015625 -0.000000 0.656250
v 0.031250 -0.020833 0.656250
v 0.031250 -0.020833 0.250000
v 0.015625 -0.000000 0.250000
v -0.015625 -0.000000 0.250000
v -0.031250 -0.020833 0.250000
v -0.031250 -0.020833 0.656250
v -0.015625 -0.000000 0.656250
v 0.015625 -0.062500 0.250000
v 0.015625 -0.062500 0.656250
v -0.015625 -0.062500 0.656250
v -0.015625 -0.062500 0.250000
v -0.031250 -0.041667 0.656250
v -0.031250 -0.041667 0.250000
v 0.031250 -0.041667 0.250000
v 0.031250 -0.041667 0.656250
v -0.015625 -0.031250 -0.000000
v 0.015625 -0.031250 -0.000000
v 0.015625 -0.031250 -0.062500
v -0.015625 -0.031250 -0.062500
v 0.015625 0.000000 -0.062500
v -0.015625 0.000000 -0.062500
vt 0.687500 0.812500
vt 0.562500 0.812500
vt 0.562500 0.781250
vt 0.687500 0.781250
vt 0.343750 0.406250
vt 0.343750 0.437500
vt 0.218750 0.437500
vt 0.218750 0.406250
vt 0.000000 0.468750
vt 0.031250 0.468750
vt 0.031250 0.593750
vt 0.000000 0.593750
vt 0.062500 0.875000
vt 0.062500 1.000000
vt 0.000000 1.000000
vt 0.000000 0.875000
vt 0.656250 0.359375
vt 0.640625 0.375000
vt 0.609375 0.375000
vt 0.593750 0.359375
vt 0.703125 1.000000
vt 0.671875 1.000000
vt 0.656250 0.984375
vt 0.718750 0.984375
vt 0.406250 0.781250
vt 0.531250 0.781250
vt 0.531250 0.812500
vt 0.406250 0.812500
vt 0.593750 0.343750
vt 0.656250 0.343750
vt 0.218750 0.468750
vt 0.343750 0.468750
vt 0.343750 0.500000
vt 0.218750 0.500000
vt 0.656250 0.968750
vt 0.718750 0.968750
vt 0.687500 0.250000
vt 0.687500 0.281250
vt 0.656250 0.281250
vt 0.656250 0.250000
vt 0.781250 1.000000
vt 0.750000 1.000000
vt 0.750000 0.968750
vt 0.781250 0.968750
vt 0.781250 0.937500
vt 0.750000 0.937500
vt 0.750000 0.906250
vt 0.781250 0.921875
vt 0.781250 0.843750
vt 0.781250 0.875000
vt 0.750000 0.875000
vt 0.750000 0.859375
vt 0.664062 0.843750
vt 0.710938 0.843750
vt 0.703125 0.875000
vt 0.671875 0.875000
vt 0.703125 0.500000
vt 0.695312 0.468750
vt 0.742188 0.468750
vt 0.734375 0.500000
vt 0.718750 0.906250
vt 0.718750 0.937500
vt 0.656250 0.937500
vt 0.656250 0.906250
vt 0.093750 0.250000
vt 0.062500 0.250000
vt 0.062500 0.218750
vt 0.093750 0.218750
vt 0.672797 0.562500
vt 0.594672 0.562500
vt 0.594672 0.531250
vt 0.672797 0.531250
vt 0.561578 0.406250
vt 0.561578 0.437500
vt 0.483453 0.437500
vt 0.483453 0.406250
vt 0.468750 0.484375
vt 0.531250 0.484375
vt 0.531250 0.562500
vt 0.468750 0.562500
vt 0.187500 0.406250
vt 0.187500 0.484375
vt 0.125000 0.484375
vt 0.125000 0.406250
vt 0.562500 0.343750
vt 0.562500 0.375000
vt 0.500000 0.375000
vt 0.500000 0.343750
vt 0.687500 0.437500
vt 0.625000 0.437500
vt 0.625000 0.406250
vt 0.687500 0.406250
vt 0.577203 0.562500
vt 0.577203 0.531250
vt 0.476562 0.468750
vt 0.523438 0.468750
vt 0.579047 0.406250
vt 0.579047 0.437500
vt 0.179688 0.500000
vt 0.132812 0.500000
vt 0.781250 0.742188
vt 0.750000 0.750000
vt 0.750000 0.718750
vt 0.781250 0.718750
vt 0.781250 0.656250
vt 0.781250 0.687500
vt 0.750000 0.679688
vt 0.750000 0.656250
vt 0.218750 0.218750
vt 0.187500 0.218750
vt 0.187500 0.187500
vt 0.218750 0.187500
vt 0.781250 0.593750
vt 0.781250 0.625000
vt 0.750000 0.625000
vt 0.750000 0.593750
vt 0.468750 0.218750
vt 0.468750 0.250000
vt 0.437500 0.250000
vt 0.437500 0.218750
vt 0.156250 0.218750
vt 0.125000 0.218750
vt 0.125000 0.187500
vt 0.156250 0.187500
vt 0.031250 0.273438
vt 0.000000 0.281250
vt 0.000000 0.257812
vt 0.031250 0.242188
vt 0.406250 0.257812
vt 0.406250 0.281250
vt 0.375000 0.273438
vt 0.375000 0.242188
vt 0.343750 0.218750
vt 0.312500 0.218750
vt 0.312500 0.187500
vt 0.343750 0.187500
vt 0.812500 0.531250
vt 0.812500 0.562500
vt 0.781250 0.562500
vt 0.781250 0.531250
vt 0.812500 0.781250
vt 0.812500 0.812500
vt 0.781250 0.812500
vt 0.781250 0.781250
vt 0.281250 0.218750
vt 0.250000 0.218750
vt 0.250000 0.187500
vt 0.281250 0.187500
vt 0.437500 0.467136
vt 0.437500 0.562500
vt 0.377551 0.552260
vt 0.375000 0.472257
vt 0.239760 0.563345
vt 0.250000 0.625000
vt 0.154636 0.625000
vt 0.159757 0.560793
vt 0.031197 0.434940
vt 0.000052 0.437500
vt 0.000052 0.342136
vt 0.015625 0.340856
vt 0.453125 0.281250
vt 0.468675 0.359779
vt 0.437575 0.362829
vt 0.437575 0.282775
vt 0.156250 0.250000
vt 0.156250 0.312500
vt 0.125000 0.312500
vt 0.125000 0.250000
vt 0.218750 0.312500
vt 0.187500 0.312500
vt 0.187500 0.250000
vt 0.218750 0.250000
vt 0.281250 0.312500
vt 0.250000 0.296875
vt 0.250000 0.265625
vt 0.281250 0.250000
vt 0.343750 0.265625
vt 0.343750 0.296875
vt 0.312500 0.312500
vt 0.312500 0.250000
vt 0.781250 0.468750
vt 0.812500 0.468750
vt 0.812500 0.500000
vt 0.781250 0.500000
vt 0.593750 0.187500
vt 0.593750 0.218750
vt 0.562500 0.218750
vt 0.562500 0.187500
vt 0.531250 0.187500
vt 0.531250 0.218750
vt 0.500000 0.218750
vt 0.500000 0.187500
vt 0.531250 0.312500
vt 0.500000 0.312500
vt 0.500000 0.250000
vt 0.531250 0.250000
vt 0.156250 0.875000
vt 0.156250 0.843750
vt 0.375000 0.843750
vt 0.375000 0.875000
vt 0.156250 0.812500
vt 0.156250 0.781250
vt 0.375000 0.781250
vt 0.375000 0.812500
vt 0.093750 0.781250
vt 0.125000 0.781250
vt 0.125000 1.000000
vt 0.093750 1.000000
vt 0.031250 0.625000
vt 0.031250 0.843750
vt 0.000000 0.843750
vt 0.000000 0.625000
vt 0.789062 0.437500
vt 0.781250 0.427084
vt 0.812500 0.427084
vt 0.804688 0.437500
vt 0.632812 0.218750
vt 0.625000 0.208334
vt 0.656250 0.208334
vt 0.648438 0.218750
vt 0.281250 0.718750
vt 0.281250 0.750000
vt 0.062500 0.750000
vt 0.062500 0.718750
vt 0.375000 0.968750
vt 0.375000 1.000000
vt 0.156250 1.000000
vt 0.156250 0.968750
vt 0.648438 0.187500
vt 0.656250 0.197916
vt 0.625000 0.197916
vt 0.632812 0.187500
vt 0.281250 0.656250
vt 0.281250 0.687500
vt 0.062500 0.687500
vt 0.062500 0.656250
vt 0.375000 0.906250
vt 0.375000 0.937500
vt 0.156250 0.937500
vt 0.156250 0.906250
vt 0.804688 0.406250
vt 0.812500 0.416666
vt 0.781250 0.416666
vt 0.789062 0.406250
vt 0.375000 0.625000
vt 0.375000 0.593750
vt 0.593750 0.593750
vt 0.593750 0.625000
vt 0.406250 1.000000
vt 0.406250 0.968750
vt 0.625000 0.968750
vt 0.625000 1.000000
vt 0.312500 0.531250
vt 0.343750 0.531250
vt 0.343750 0.750000
vt 0.312500 0.750000
vt 0.093750 0.406250
vt 0.093750 0.625000
vt 0.062500 0.625000
vt 0.062500 0.406250
vt 0.789062 0.375000
vt 0.781250 0.364584
vt 0.812500 0.364584
vt 0.804688 0.375000
vt 0.695312 0.218750
vt 0.687500 0.208334
vt 0.718750 0.208334
vt 0.710938 0.218750
vt 0.625000 0.906250
vt 0.625000 0.937500
vt 0.406250 0.937500
vt 0.406250 0.906250
vt 0.593750 0.718750
vt 0.593750 0.750000
vt 0.375000 0.750000
vt 0.375000 0.718750
vt 0.710938 0.187500
vt 0.718750 0.197916
vt 0.687500 0.197916
vt 0.695312 0.187500
vt 0.625000 0.843750
vt 0.625000 0.875000
vt 0.406250 0.875000
vt 0.406250 0.843750
vt 0.593750 0.656250
vt 0.593750 0.687500
vt 0.375000 0.687500
vt 0.375000 0.656250
vt 0.804688 0.343750
vt 0.812500 0.354166
vt 0.781250 0.354166
vt 0.789062 0.343750
vt 0.656250 0.281250
vt 0.687500 0.281250
vt 0.687500 0.250000
vt 0.656250 0.250000
vt 0.750000 0.968750
vt 0.750000 1.000000
vt 0.781250 1.000000
vt 0.781250 0.968750
vn 0.7071 0.7071 0.0000
vn -0.7071 0.7071 0.0000
vn 0.0000 1.0000 0.0000
vn 0.0000 -1.0000 -0.0000
vn 0.0000 0.0000 1.0000
vn 0.0000 0.0000 -1.0000
vn 1.0000 0.0000 0.0000
vn -1.0000 0.0000 0.0000
vn 0.9701 0.0000 -0.2425
vn -0.9701 0.0000 -0.2425
vn 0.0000 -0.8944 -0.4472
vn 0.8944 -0.0000 0.4472
vn -0.8944 -0.0000 0.4472
vn 0.0000 0.9701 -0.2425
vn 0.0000 -0.8944 0.4472
vn 0.9965 -0.0000 -0.0831
vn -0.9965 -0.0000 -0.0831
vn 0.0000 0.9864 -0.1644
vn 0.0000 -0.9806 0.1961
vn 0.0000 -0.2425 -0.9701
vn 0.0000 0.8944 0.4472
vn 0.8000 0.6000 0.0000
vn -0.8000 0.6000 0.0000
vn -0.8000 -0.6000 -0.0000
vn 0.8000 -0.6000 -0.0000
usemtl m_96e3edca-1fbe-a6fe-163c-8ff7fc34ee07
s 1
f 25/57/15 26/58/15 27/59/15 28/60/15
f 29/61/16 30/62/16 31/63/16 32/64/16
f 30/65/17 26/66/17 25/67/17 31/68/17
f 33/69/18 34/70/18 35/71/18 36/72/18
f 27/73/19 26/74/19 30/75/19 29/76/19
f 31/77/20 25/78/20 28/79/20 32/80/20
f 34/81/21 33/82/21 28/83/21 27/84/21
f 35/85/19 34/86/19 27/73/19 29/76/19
f 36/87/22 35/88/22 29/89/22 32/90/22
f 33/91/20 36/92/20 32/80/20 28/79/20
f 37/93/18 38/94/18 39/95/18 40/96/18
f 41/97/20 42/98/20 37/99/20 40/100/20
f 43/101/23 44/102/23 45/103/23 46/104/23
f 47/105/24 48/106/24 49/107/24 50/108/24
f 48/109/17 44/110/17 43/111/17 49/112/17
f 46/113/25 45/114/25 47/115/25 50/116/25
f 45/117/19 44/118/19 48/119/19 47/120/19
f 49/121/20 43/122/20 46/123/20 50/124/20
f 51/125/21 52/126/21 53/127/21 54/128/21
f 55/129/22 56/130/22 57/131/22 58/132/22
f 56/133/17 52/134/17 51/135/17 57/136/17
f 54/137/18 53/138/18 55/139/18 58/140/18
f 59/141/19 60/142/19 61/143/19 62/144/19
f 57/145/20 51/146/20 54/147/20 58/148/20
f 60/149/26 59/150/26 53/127/26 52/126/26
f 61/151/17 60/152/17 52/134/17 56/133/17
f 62/153/27 61/154/27 56/130/27 55/129/27
f 59/155/18 62/156/18 55/139/18 53/138/18
f 63/157/21 64/158/21 65/159/21 66/160/21
f 67/161/22 68/162/22 69/163/22 70/164/22
f 68/165/28 64/166/28 63/167/28 69/168/28
f 66/169/18 65/170/18 67/171/18 70/172/18
f 65/173/19 64/174/19 68/175/19 67/176/19
f 69/177/20 63/178/20 66/179/20 70/180/20
f 71/181/21 72/182/21 73/183/21 74/184/21
f 75/185/22 76/186/22 77/187/22 78/188/22
f 76/189/28 72/190/28 71/191/28 77/192/28
f 74/193/29 73/194/29 75/195/29 78/196/29
f 73/197/19 72/198/19 76/199/19 75/200/19
f 77/201/20 71/202/20 74/203/20 78/204/20
f 79/205/30 80/206/30 81/207/30 82/208/30
f 83/209/31 84/210/31 85/211/31 86/212/31
f 84/213/32 80/214/32 79/215/32 85/216/32
f 82/217/33 81/218/33 83/219/33 86/220/33
f 81/221/19 80/222/19 84/223/19 83/224/19
f 85/225/34 79/226/34 82/227/34 86/228/34
f 87/229/21 88/230/21 89/231/21 90/232/21
f 91/233/22 92/234/22 93/235/22 94/236/22
f 92/237/35 88/238/35 87/239/35 93/240/35
f 90/241/29 89/242/29 91/243/29 94/244/29
f 89/245/19 88/246/19 92/247/19 91/248/19
f 93/249/20 87/250/20 90/251/20 94/252/20
f 95/253/36 96/254/36 97/255/36 98/256/36
f 99/257/37 100/258/37 101/259/37 102/260/37
f 102/261/17 95/262/17 98/263/17 99/264/17
f 103/265/18 104/266/18 105/267/18 106/268/18
f 102/269/19 101/270/19 96/271/19 95/272/19
f 98/273/20 97/274/20 100/275/20 99/276/20
f 105/277/38 107/278/38 108/279/38 106/280/38
f 107/281/22 101/282/22 100/283/22 108/284/22
f 106/285/20 108/286/20 109/287/20 103/288/20
f 108/286/20 100/275/20 97/274/20 109/287/20
f 103/289/39 109/290/39 110/291/39 104/292/39
f 109/293/21 97/294/21 96/295/21 110/296/21
f 104/297/19 110/298/19 107/299/19 105/300/19
f 110/298/19 96/271/19 101/270/19 107/299/19
f 111/301/36 112/302/36 113/303/36 114/304/36
f 115/305/37 116/306/37 117/307/37 118/308/37
f 118/309/17 111/310/17 114/311/17 115/312/17
f 119/313/18 120/314/18 121/315/18 122/316/18
f 118/317/19 117/318/19 112/319/19 111/320/19
f 114/321/20 113/322/20 116/323/20 115/324/20
f 121/325/38 123/326/38 124/327/38 122/328/38
f 123/329/22 117/330/22 116/331/22 124/332/22
f 122/333/20 124/334/20 125/335/20 119/336/20
f 124/334/20 116/323/20 113/322/20 125/335/20
f 119/337/39 125/338/39 126/339/39 120/340/39
f 125/341/21 113/342/21 112/343/21 126/344/21
f 120/345/19 126/346/19 123/347/19 121/348/19
f 126/346/19 112/319/19 117/318/19 123/347/19
f 127/349/17 128/350/17 129/351/17 130/352/17
f 129/353/19 131/354/19 132/355/19 130/356/19
