# Blender v2.79 (sub 0) OBJ File: ''
# www.blender.org
mtllib rifle_auto.mtl
o cuboid
v 0.031250 0.000000 -0.062500
v 0.031250 0.000000 0.000000
v 0.031250 -0.125000 -0.062500
v 0.031250 -0.125000 -0.125000
v -0.031250 -0.125000 -0.062500
v -0.031250 0.000000 0.000000
v -0.031250 0.000000 -0.062500
v -0.031250 -0.125000 -0.125000
v 0.031250 0.046875 -0.093750
v 0.031250 0.046875 0.187500
v 0.031250 -0.000000 0.187500
v 0.031250 0.000000 -0.062500
v -0.031250 -0.000000 0.187500
v -0.031250 0.046875 0.187500
v -0.031250 0.046875 -0.093750
v -0.031250 0.000000 -0.062500
v 0.015625 0.000000 -0.015625
v 0.015625 -0.000000 0.046875
v 0.015625 -0.031250 0.031250
v 0.015625 -0.031250 -0.015625
v -0.015625 -0.031250 0.031250
v -0.015625 -0.000000 0.046875
v -0.015625 0.000000 -0.015625
v -0.015625 -0.031250 -0.015625
v 0.023438 -0.000000 0.125000
v 0.023438 -0.000000 0.187500
v 0.023438 -0.046875 0.195312
v 0.023438 -0.046875 0.132812
v -0.023438 -0.046875 0.195312
v -0.023438 -0.000000 0.187500
v -0.023438 -0.000000 0.125000
v -0.023438 -0.046875 0.132812
v 0.023438 -0.046875 0.132812
v 0.023438 -0.046875 0.195312
v 0.023438 -0.093750 0.218750
v 0.023438 -0.093750 0.156250
v -0.023438 -0.093750 0.218750
v -0.023438 -0.046875 0.195312
v -0.023438 -0.046875 0.132812
v -0.023438 -0.093750 0.156250
v 0.023438 -0.093750 0.156250
v 0.023438 -0.093750 0.218750
v 0.023438 -0.140625 0.257812
v 0.023438 -0.156250 0.203125
v -0.023438 -0.140625 0.257812
v -0.023438 -0.093750 0.218750
v -0.023438 -0.093750 0.156250
v -0.023438 -0.156250 0.203125
v 0.015625 -0.000000 0.187500
v 0.031250 0.031250 0.187500
v 0.031250 0.031250 0.375000
v 0.015625 -0.000000 0.375000
v -0.015625 -0.000000 0.375000
v -0.031250 0.031250 0.375000
v -0.031250 0.031250 0.187500
v -0.015625 -0.000000 0.187500
v -0.031250 0.046875 0.375000
v 0.031250 0.046875 0.375000
v 0.031250 0.046875 0.187500
v -0.031250 0.046875 0.187500
v 0.031250 0.046875 -0.093750
v 0.031250 0.078125 -0.078125
v 0.031250 0.078125 0.250000
v 0.031250 0.046875 0.250000
v -0.031250 0.046875 0.250000
v -0.031250 0.078125 0.250000
v -0.031250 0.078125 -0.078125
v -0.031250 0.046875 -0.093750
v -0.015625 0.093750 0.250000
v 0.015625 0.093750 0.250000
v 0.015625 0.093750 -0.062500
v -0.015625 0.093750 -0.062500
v 0.031250 0.093750 0.250000
v 0.031250 0.093750 0.312500
v 0.031250 0.046875 0.375000
v 0.031250 0.046875 0.250000
v -0.031250 0.046875 0.375000
v -0.031250 0.093750 0.312500
v -0.031250 0.093750 0.250000
v -0.031250 0.046875 0.250000
v 0.031250 0.062500 -0.132812
v 0.023438 0.078125 -0.070312
v 0.023438 0.015625 -0.070312
v 0.031250 0.000000 -0.132812
v -0.023438 0.015625 -0.070312
v -0.023438 0.078125 -0.070312
v -0.031250 0.062500 -0.132812
v -0.031250 0.000000 -0.132812
v 0.031250 0.078125 -0.195312
v 0.031250 0.062500 -0.132812
v 0.031250 0.000000 -0.132812
v 0.031250 -0.046875 -0.195313
v -0.031250 0.000000 -0.132812
v -0.031250 0.062500 -0.132812
v -0.031250 0.078125 -0.195312
v -0.031250 -0.046875 -0.195313
v 0.015625 0.015625 -0.382812
v 0.031250 0.078125 -0.195312
v 0.031250 -0.046875 -0.195313
v 0.015625 -0.109375 -0.351563
v -0.031250 -0.046875 -0.195313
v -0.031250 0.078125 -0.195312
v -0.015625 0.015625 -0.382812
v -0.015625 -0.109375 -0.351563
v 0.015625 0.046875 0.250000
v 0.015625 0.046875 0.562500
v 0.015625 0.015625 0.562500
v 0.015625 0.015625 0.250000
v -0.015625 0.015625 0.562500
v -0.015625 0.046875 0.562500
v -0.015625 0.046875 0.250000
v -0.015625 0.015625 0.250000
v 0.015625 0.093750 0.312500
v 0.015625 0.093750 0.406250
v 0.015625 0.062500 0.437500
v 0.015625 0.062500 0.312500
v -0.015625 0.062500 0.437500
v -0.015625 0.093750 0.406250
v -0.015625 0.093750 0.312500
v -0.015625 0.062500 0.312500
v 0.015625 0.062500 0.406250
v 0.015625 0.062500 0.437500
v 0.015625 0.046875 0.453125
v 0.015625 0.046875 0.406250
v -0.015625 0.046875 0.453125
v -0.015625 0.062500 0.437500
v -0.015625 0.062500 0.406250
v -0.015625 0.046875 0.406250
v 0.000000 0.093750 0.531250
v 0.000000 0.093750 0.562500
v 0.000000 0.046875 0.562500
v 0.000000 0.046875 0.515625
v 0.000000 0.046875 0.562500
v 0.000000 0.093750 0.562500
v 0.000000 0.093750 0.531250
v 0.000000 0.046875 0.515625
v 0.007812 0.109375 0.531250
v 0.007812 0.109375 0.562500
v 0.007812 0.093750 0.562500
v 0.007812 0.093750 0.531250
v -0.007812 0.093750 0.562500
v -0.007812 0.109375 0.562500
v -0.007812 0.109375 0.531250
v -0.007812 0.093750 0.531250
v -0.015625 0.109375 -0.031250
v -0.015625 0.109375 0.000000
v -0.015625 0.093750 0.000000
v -0.015625 0.093750 -0.046875
v -0.015625 0.093750 0.000000
v -0.015625 0.109375 0.000000
v -0.015625 0.109375 -0.031250
v -0.015625 0.093750 -0.046875
v 0.015625 0.109375 -0.031250
v 0.015625 0.109375 0.000000
v 0.015625 0.093750 0.000000
v 0.015625 0.093750 -0.046875
v 0.015625 0.093750 0.000000
v 0.015625 0.109375 0.000000
v 0.015625 0.109375 -0.031250
v 0.015625 0.093750 -0.046875
vt 0.468750 0.611025
vt 0.437500 0.625000
vt 0.437500 0.555123
vt 0.468750 0.541147
vt 0.393924 0.781250
vt 0.463801 0.781250
vt 0.449826 0.812500
vt 0.379949 0.812500
vt 0.375000 0.375000
vt 0.406250 0.375000
vt 0.406250 0.406250
vt 0.375000 0.406250
vt 0.468750 0.375000
vt 0.468750 0.406250
vt 0.437500 0.406250
vt 0.437500 0.375000
vt 0.031250 0.437500
vt 0.031250 0.500000
vt 0.000000 0.500000
vt 0.000000 0.437500
vt 0.093750 0.500000
vt 0.062500 0.500000
vt 0.062500 0.437500
vt 0.093750 0.437500
vt 0.515625 1.000000
vt 0.375000 1.000000
vt 0.375000 0.968750
vt 0.500000 0.968750
vt 0.468750 0.718750
vt 0.468750 0.750000
vt 0.312500 0.750000
vt 0.328125 0.718750
vt 0.125000 0.531250
vt 0.156250 0.531250
vt 0.156250 0.687500
vt 0.125000 0.687500
vt 0.031250 0.531250
vt 0.031250 0.656250
vt 0.000000 0.656250
vt 0.000000 0.531250
vt 0.531250 0.375000
vt 0.531250 0.406250
vt 0.500000 0.406250
vt 0.500000 0.375000
vt 0.625000 0.468750
vt 0.593750 0.468750
vt 0.593750 0.437500
vt 0.625000 0.437500
vt 0.593750 0.406250
vt 0.562500 0.406250
vt 0.562500 0.375000
vt 0.593750 0.375000
vt 0.656250 0.593750
vt 0.656250 0.625000
vt 0.625000 0.625000
vt 0.625000 0.593750
vt 0.625000 0.375000
vt 0.656250 0.375000
vt 0.656250 0.406250
vt 0.625000 0.406250
vt 0.031250 0.312500
vt 0.031250 0.343750
vt 0.000000 0.343750
vt 0.000000 0.312500
vt 0.687500 0.968750
vt 0.687500 1.000000
vt 0.656250 1.000000
vt 0.656250 0.968750
vt 0.093750 0.343750
vt 0.062500 0.343750
vt 0.062500 0.312500
vt 0.093750 0.312500
vt 0.634766 0.937500
vt 0.603516 0.937500
vt 0.599609 0.906250
vt 0.630859 0.906250
vt 0.634766 0.843750
vt 0.630859 0.875000
vt 0.599609 0.875000
vt 0.603516 0.843750
vt 0.125000 0.312500
vt 0.156250 0.312500
vt 0.156250 0.343750
vt 0.125000 0.343750
vt 0.218750 0.312500
vt 0.218750 0.343750
vt 0.187500 0.343750
vt 0.187500 0.312500
vt 0.687500 0.781250
vt 0.687500 0.812500
vt 0.656250 0.812500
vt 0.656250 0.781250
vt 0.281250 0.343750
vt 0.250000 0.343750
vt 0.250000 0.312500
vt 0.281250 0.312500
vt 0.607422 0.750000
vt 0.576172 0.750000
vt 0.564453 0.718750
vt 0.595703 0.718750
vt 0.607422 0.656250
vt 0.595703 0.687500
vt 0.564453 0.687500
vt 0.576172 0.656250
vt 0.656250 0.718750
vt 0.687500 0.718750
vt 0.687500 0.750000
vt 0.656250 0.750000
vt 0.343750 0.312500
vt 0.343750 0.343750
vt 0.312500 0.343750
vt 0.312500 0.312500
vt 0.687500 0.656250
vt 0.687500 0.687500
vt 0.656250 0.687500
vt 0.656250 0.656250
vt 0.406250 0.343750
vt 0.375000 0.343750
vt 0.375000 0.312500
vt 0.406250 0.312500
vt 0.056507 0.382243
vt 0.036502 0.406250
vt 0.005993 0.406250
vt 0.014995 0.383243
vt 0.281250 0.386985
vt 0.281250 0.417494
vt 0.250000 0.437500
vt 0.251000 0.395988
vt 0.437500 0.312500
vt 0.468750 0.312500
vt 0.468750 0.343750
vt 0.437500 0.343750
vt 0.687500 0.531250
vt 0.687500 0.562500
vt 0.656250 0.562500
vt 0.656250 0.531250
vt 0.687500 0.468750
vt 0.687500 0.500000
vt 0.656250 0.500000
vt 0.656250 0.468750
vt 0.531250 0.343750
vt 0.500000 0.343750
vt 0.500000 0.312500
vt 0.531250 0.312500
vt 0.562500 0.912219
vt 0.562500 0.929688
vt 0.468750 0.929688
vt 0.468750 0.912219
vt 0.562500 0.849719
vt 0.562500 0.867188
vt 0.468750 0.867188
vt 0.468750 0.849719
vt 0.312500 0.531250
vt 0.343750 0.531250
vt 0.343750 0.625000
vt 0.312500 0.625000
vt 0.406250 0.531250
vt 0.406250 0.625000
vt 0.375000 0.625000
vt 0.375000 0.531250
vt 0.773438 0.289062
vt 0.781250 0.304688
vt 0.750000 0.304688
vt 0.757812 0.289062
vt 0.773438 0.226562
vt 0.781250 0.242188
vt 0.750000 0.242188
vt 0.757812 0.226562
vt 0.468750 0.937500
vt 0.562500 0.937500
vt 0.750000 0.250000
vt 0.781250 0.250000
vt 0.468750 0.875000
vt 0.562500 0.875000
vt 0.750000 0.312500
vt 0.781250 0.312500
vt 0.359375 0.906250
vt 0.351562 0.937500
vt 0.187500 0.937500
vt 0.187500 0.906250
vt 0.343750 0.968750
vt 0.343750 1.000000
vt 0.164062 1.000000
vt 0.156250 0.968750
vt 0.187500 0.531250
vt 0.218750 0.531250
vt 0.218750 0.687500
vt 0.187500 0.687500
vt 0.031250 0.687500
vt 0.031250 0.875000
vt 0.000000 0.875000
vt 0.000000 0.687500
vt 0.031250 0.195312
vt 0.031250 0.210938
vt 0.000000 0.210938
vt 0.000000 0.195312
vt 0.718750 0.221481
vt 0.718750 0.238950
vt 0.687500 0.238950
vt 0.687500 0.221481
vt 0.695312 0.250000
vt 0.710938 0.250000
vt 0.320312 0.687500
vt 0.312500 0.656250
vt 0.468750 0.656250
vt 0.468750 0.687500
vt 0.007812 0.218750
vt 0.023438 0.218750
vt 0.187500 0.875000
vt 0.187500 0.843750
vt 0.343750 0.843750
vt 0.336310 0.875000
vt 0.187500 0.500000
vt 0.156250 0.500000
vt 0.125000 0.468750
vt 0.187500 0.468750
vt 0.562500 0.781250
vt 0.531250 0.812500
vt 0.500000 0.812500
vt 0.500000 0.781250
vt 0.562500 0.312500
vt 0.593750 0.312500
vt 0.593750 0.343750
vt 0.562500 0.343750
vt 0.531250 0.687500
vt 0.531250 0.750000
vt 0.500000 0.750000
vt 0.500000 0.687500
vt 0.718750 0.906250
vt 0.718750 0.937500
vt 0.687500 0.937500
vt 0.687500 0.906250
vt 0.656250 0.343750
vt 0.625000 0.343750
vt 0.625000 0.312500
vt 0.656250 0.312500
vt 0.593750 0.578125
vt 0.593750 0.625000
vt 0.562500 0.625000
vt 0.562500 0.578125
vt 0.609375 0.500000
vt 0.609375 0.531250
vt 0.562500 0.531250
vt 0.562500 0.500000
vt 0.718750 0.437500
vt 0.687500 0.437500
vt 0.687500 0.390625
vt 0.718750 0.390625
vt 0.718750 0.328125
vt 0.718750 0.375000
vt 0.687500 0.375000
vt 0.687500 0.328125
vt 0.718750 0.843750
vt 0.718750 0.875000
vt 0.687500 0.875000
vt 0.687500 0.843750
vt 0.718750 0.625000
vt 0.687500 0.625000
vt 0.687500 0.593750
vt 0.718750 0.593750
vt 0.343750 0.500000
vt 0.312500 0.492188
vt 0.312500 0.460938
vt 0.343750 0.437500
vt 0.531250 0.617188
vt 0.531250 0.648438
vt 0.500000 0.656250
vt 0.500000 0.593750
vt 0.000000 0.250000
vt 0.031250 0.250000
vt 0.031250 0.281250
vt 0.000000 0.281250
vt 0.750000 0.968750
vt 0.750000 1.000000
vt 0.718750 1.000000
vt 0.718750 0.968750
vt 0.718750 0.281250
vt 0.718750 0.312500
vt 0.687500 0.312500
vt 0.687500 0.281250
vt 0.406250 0.500000
vt 0.375000 0.500000
vt 0.375000 0.437500
vt 0.406250 0.437500
vt 0.156250 0.807429
vt 0.156250 0.906250
vt 0.098691 0.886486
vt 0.093750 0.802488
vt 0.086804 0.940707
vt 0.106569 1.000000
vt 0.007748 1.000000
vt 0.002806 0.935766
vt 0.437500 0.937500
vt 0.406250 0.937500
vt 0.406250 0.843750
vt 0.437500 0.843750
vt 0.281250 0.468750
vt 0.281250 0.562500
vt 0.250000 0.562500
vt 0.250000 0.468750
vt 0.468750 0.437500
vt 0.468750 0.500000
vt 0.437500 0.500000
vt 0.437500 0.437500
vt 0.531250 0.562500
vt 0.500000 0.562500
vt 0.500000 0.500000
vt 0.531250 0.500000
vt 0.343750 0.812500
vt 0.187500 0.812500
vt 0.187500 0.781250
vt 0.343750 0.781250
vt 0.218750 0.718750
vt 0.218750 0.750000
vt 0.062500 0.750000
vt 0.062500 0.718750
vt 0.250000 0.593750
vt 0.281250 0.593750
vt 0.281250 0.750000
vt 0.250000 0.750000
vt 0.093750 0.531250
vt 0.093750 0.687500
vt 0.062500 0.687500
vt 0.062500 0.531250
vt 0.625000 0.781250
vt 0.625000 0.812500
vt 0.593750 0.812500
vt 0.593750 0.781250
vt 0.343750 0.406250
vt 0.312500 0.406250
vt 0.312500 0.375000
vt 0.343750 0.375000
vt 0.562500 0.468750
vt 0.515625 0.468750
vt 0.500000 0.437500
vt 0.562500 0.437500
vt 0.625000 0.968750
vt 0.609375 1.000000
vt 0.562500 1.000000
vt 0.562500 0.968750
vt 0.125000 0.375000
vt 0.156250 0.375000
vt 0.156250 0.437500
vt 0.125000 0.437500
vt 0.218750 0.375000
vt 0.218750 0.437500
vt 0.187500 0.437500
vt 0.187500 0.375000
vt 0.156250 0.250000
vt 0.156250 0.281250
vt 0.125000 0.281250
vt 0.125000 0.250000
vt 0.093750 0.281250
vt 0.062500 0.281250
vt 0.062500 0.250000
vt 0.093750 0.250000
vt 0.218750 0.281250
vt 0.195312 0.281250
vt 0.187500 0.250000
vt 0.218750 0.250000
vt 0.808594 0.968750
vt 0.800781 1.000000
vt 0.785156 1.000000
vt 0.785156 0.968750
vt 0.718750 0.781250
vt 0.750000 0.781250
vt 0.750000 0.812500
vt 0.718750 0.812500
vt 0.281250 0.250000
vt 0.281250 0.281250
vt 0.250000 0.281250
vt 0.250000 0.250000
vt 0.343750 0.250000
vt 0.343750 0.281250
vt 0.312500 0.281250
vt 0.312500 0.250000
vt 0.750000 0.750000
vt 0.718750 0.750000
vt 0.718750 0.718750
vt 0.750000 0.718750
vt 0.082031 0.218750
vt 0.066406 0.218750
vt 0.066406 0.187500
vt 0.089844 0.187500
vt 0.750000 0.656250
vt 0.750000 0.687500
vt 0.726562 0.687500
vt 0.718750 0.656250
vt 0.406250 0.281250
vt 0.375000 0.281250
vt 0.375000 0.250000
vt 0.406250 0.250000
vt 0.468750 0.250000
vt 0.468750 0.281250
vt 0.437500 0.281250
vt 0.437500 0.250000
vt 0.718750 0.531250
vt 0.750000 0.531250
vt 0.750000 0.562500
vt 0.718750 0.562500
vt 0.531250 0.250000
vt 0.531250 0.281250
vt 0.500000 0.281250
vt 0.500000 0.250000
vt 0.750000 0.468750
vt 0.750000 0.500000
vt 0.718750 0.500000
vt 0.718750 0.468750
vt 0.593750 0.281250
vt 0.562500 0.281250
vt 0.562500 0.250000
vt 0.593750 0.250000
vt 0.796875 0.750000
vt 0.765625 0.750000
vt 0.765625 0.718750
vt 0.796875 0.718750
vt 0.796875 0.656250
vt 0.796875 0.687500
vt 0.765625 0.687500
vt 0.765625 0.656250
vt 0.843750 0.750000
vt 0.812500 0.750000
vt 0.812500 0.718750
vt 0.843750 0.718750
vt 0.843750 0.656250
vt 0.843750 0.687500
vt 0.812500 0.687500
vt 0.812500 0.656250
vn 1.0000 0.0000 0.0000
vn -1.0000 0.0000 0.0000
vn 0.0000 1.0000 0.0000
vn 0.0000 -1.0000 -0.0000
vn 0.0000 -0.4472 0.8944
vn 0.0000 0.4472 -0.8944
vn 0.0000 -0.0000 1.0000
vn 0.0000 -0.5547 -0.8321
vn 0.0000 0.0000 -1.0000
vn 0.0000 0.1644 0.9864
vn 0.0000 -0.1644 -0.9864
vn 0.0000 0.4472 0.8944
vn 0.0000 -0.4472 -0.8944
vn 0.0000 -0.9615 0.2747
vn 0.0000 0.6402 0.7682
vn 0.0000 -0.6000 -0.8000
vn 0.8944 -0.4472 -0.0000
vn -0.8944 -0.4472 -0.0000
vn 0.0000 0.7071 -0.7071
vn -0.7071 0.7071 0.0000
vn 0.7071 0.7071 0.0000
vn 0.0000 0.8000 0.6000
vn 0.9923 -0.0000 0.1240
vn -0.9923 -0.0000 0.1240
vn 0.0000 0.9701 -0.2425
vn 0.0000 -0.9701 0.2425
vn 0.0000 0.9701 0.2425
vn 0.0000 -0.8000 0.6000
vn 0.9965 -0.0000 -0.0831
vn -0.9965 -0.0000 -0.0831
vn 0.0000 0.9487 -0.3162
vn 0.0000 -0.9285 0.3714
vn 0.0000 -0.2425 -0.9701
vn 0.0000 0.7071 0.7071
usemtl m_96477a16-b878-652c-b644-a393edbeae2f
s 1
f 1/1/1 2/2/1 3/3/1 4/4/1
f 5/5/2 6/6/2 7/7/2 8/8/2
f 6/9/3 2/10/3 1/11/3 7/12/3
f 4/13/4 3/14/4 5/15/4 8/16/4
f 3/17/5 2/18/5 6/19/5 5/20/5
f 7/21/6 1/22/6 4/23/6 8/24/6
f 9/25/1 10/26/1 11/27/1 12/28/1
f 13/29/2 14/30/2 15/31/2 16/32/2
f 14/33/3 10/34/3 9/35/3 15/36/3
f 12/37/4 11/38/4 13/39/4 16/40/4
f 11/41/7 10/42/7 14/43/7 13/44/7
f 15/45/8 9/46/8 12/47/8 16/48/8
f 17/49/1 18/50/1 19/51/1 20/52/1
f 21/53/2 22/54/2 23/55/2 24/56/2
f 22/57/3 18/58/3 17/59/3 23/60/3
f 20/61/4 19/62/4 21/63/4 24/64/4
f 19/65/5 18/66/5 22/67/5 21/68/5
f 23/69/9 17/70/9 20/71/9 24/72/9
f 25/73/1 26/74/1 27/75/1 28/76/1
f 29/77/2 30/78/2 31/79/2 32/80/2
f 30/81/3 26/82/3 25/83/3 31/84/3
f 28/85/4 27/86/4 29/87/4 32/88/4
f 27/89/10 26/90/10 30/91/10 29/92/10
f 31/93/11 25/94/11 28/95/11 32/96/11
f 33/97/1 34/98/1 35/99/1 36/100/1
f 37/101/2 38/102/2 39/103/2 40/104/2
f 38/105/3 34/106/3 33/107/3 39/108/3
f 36/109/4 35/110/4 37/111/4 40/112/4
f 35/113/12 34/114/12 38/115/12 37/116/12
f 39/117/13 33/118/13 36/119/13 40/120/13
f 41/121/1 42/122/1 43/123/1 44/124/1
f 45/125/2 46/126/2 47/127/2 48/128/2
f 46/129/3 42/130/3 41/131/3 47/132/3
f 44/133/14 43/134/14 45/135/14 48/136/14
f 43/137/15 42/138/15 46/139/15 45/140/15
f 47/141/16 41/142/16 44/143/16 48/144/16
f 49/145/17 50/146/17 51/147/17 52/148/17
f 53/149/18 54/150/18 55/151/18 56/152/18
f 57/153/3 58/154/3 59/155/3 60/156/3
f 49/157/4 52/158/4 53/159/4 56/160/4
f 52/161/7 51/162/7 54/163/7 53/164/7
f 56/165/9 55/166/9 50/167/9 49/168/9
f 58/169/1 51/147/1 50/146/1 59/170/1
f 59/171/9 50/167/9 55/166/9 60/172/9
f 60/173/2 55/151/2 54/150/2 57/174/2
f 57/175/7 54/163/7 51/162/7 58/176/7
f 61/177/1 62/178/1 63/179/1 64/180/1
f 65/181/2 66/182/2 67/183/2 68/184/2
f 69/185/3 70/186/3 71/187/3 72/188/3
f 61/189/4 64/190/4 65/191/4 68/192/4
f 64/193/7 63/194/7 66/195/7 65/196/7
f 68/197/6 67/198/6 62/199/6 61/200/6
f 71/201/19 62/199/19 67/198/19 72/202/19
f 72/203/20 67/204/20 66/205/20 69/206/20
f 69/207/7 66/195/7 63/194/7 70/208/7
f 70/209/21 63/210/21 62/211/21 71/212/21
f 73/213/1 74/214/1 75/215/1 76/216/1
f 77/217/2 78/218/2 79/219/2 80/220/2
f 78/221/3 74/222/3 73/223/3 79/224/3
f 76/225/4 75/226/4 77/227/4 80/228/4
f 75/229/22 74/230/22 78/231/22 77/232/22
f 79/233/9 73/234/9 76/235/9 80/236/9
f 81/237/23 82/238/23 83/239/23 84/240/23
f 85/241/24 86/242/24 87/243/24 88/244/24
f 86/245/25 82/246/25 81/247/25 87/248/25
f 84/249/26 83/250/26 85/251/26 88/252/26
f 83/253/7 82/254/7 86/255/7 85/256/7
f 87/257/9 81/258/9 84/259/9 88/260/9
f 89/261/1 90/262/1 91/263/1 92/264/1
f 93/265/2 94/266/2 95/267/2 96/268/2
f 94/269/27 90/270/27 89/271/27 95/272/27
f 92/273/28 91/274/28 93/275/28 96/276/28
f 91/277/7 90/278/7 94/279/7 93/280/7
f 95/281/9 89/282/9 92/283/9 96/284/9
f 97/285/29 98/286/29 99/287/29 100/288/29
f 101/289/30 102/290/30 103/291/30 104/292/30
f 102/293/31 98/294/31 97/295/31 103/296/31
f 100/297/32 99/298/32 101/299/32 104/300/32
f 99/301/7 98/302/7 102/303/7 101/304/7
f 103/305/33 97/306/33 100/307/33 104/308/33
f 105/309/1 106/310/1 107/311/1 108/312/1
f 109/313/2 110/314/2 111/315/2 112/316/2
f 110/317/3 106/318/3 105/319/3 111/320/3
f 108/321/4 107/322/4 109/323/4 112/324/4
f 107/325/7 106/326/7 110/327/7 109/328/7
f 111/329/9 105/330/9 108/331/9 112/332/9
f 113/333/1 114/334/1 115/335/1 116/336/1
f 117/337/2 118/338/2 119/339/2 120/340/2
f 118/341/3 114/342/3 113/343/3 119/344/3
f 116/345/4 115/346/4 117/347/4 120/348/4
f 115/349/34 114/350/34 118/351/34 117/352/34
f 119/353/9 113/354/9 116/355/9 120/356/9
f 121/357/1 122/358/1 123/359/1 124/360/1
f 125/361/2 126/362/2 127/363/2 128/364/2
f 126/365/3 122/366/3 121/367/3 127/368/3
f 124/369/4 123/370/4 125/371/4 128/372/4
f 123/373/34 122/374/34 126/375/34 125/376/34
f 127/377/9 121/378/9 124/379/9 128/380/9
f 129/381/1 130/382/1 131/383/1 132/384/1
f 133/385/2 134/386/2 135/387/2 136/388/2
f 137/389/1 138/390/1 139/391/1 140/392/1
f 141/393/2 142/394/2 143/395/2 144/396/2
f 142/397/3 138/398/3 137/399/3 143/400/3
f 140/401/4 139/402/4 141/403/4 144/404/4
f 139/405/7 138/406/7 142/407/7 141/408/7
f 143/409/9 137/410/9 140/411/9 144/412/9
f 145/413/1 146/414/1 147/415/1 148/416/1
f 149/417/2 150/418/2 151/419/2 152/420/2
f 153/421/1 154/422/1 155/423/1 156/424/1
f 157/425/2 158/426/2 159/427/2 160/428/2
o bolt
v -0.031250 0.054687 0.148438
v -0.031250 0.054687 0.164063
v -0.031250 0.039062 0.164062
v -0.031250 0.039062 0.148438
v -0.062500 0.039062 0.164062
v -0.062500 0.054687 0.164063
v -0.062500 0.054687 0.148438
v -0.062500 0.039062 0.148438
vt 0.656250 0.281250
vt 0.625000 0.281250
vt 0.625000 0.250000
vt 0.656250 0.250000
vt 0.781250 0.906250
vt 0.781250 0.937500
vt 0.750000 0.937500
vt 0.750000 0.906250
vt 0.750000 0.843750
vt 0.781250 0.843750
vt 0.781250 0.875000
vt 0.750000 0.875000
vt 0.781250 0.593750
vt 0.781250 0.625000
vt 0.750000 0.625000
vt 0.750000 0.593750
vt 0.781250 0.406250
vt 0.781250 0.437500
vt 0.750000 0.437500
vt 0.750000 0.406250
vt 0.781250 0.375000
vt 0.750000 0.375000
vt 0.750000 0.343750
vt 0.781250 0.343750
vn 1.0000 0.0000 0.0000
vn -1.0000 0.0000 0.0000
vn 0.0000 1.0000 0.0000
vn 0.0000 -1.0000 -0.0000
vn 0.0000 -0.0000 1.0000
vn 0.0000 0.0000 -1.0000
usemtl m_96477a16-b878-652c-b644-a393edbeae2f
s 1
f 161/429/35 162/430/35 163/431/35 164/432/35
f 165/433/36 166/434/36 167/435/36 168/436/36
f 166/437/37 162/438/37 161/439/37 167/440/37
f 164/441/38 163/442/38 165/443/38 168/444/38
f 163/445/39 162/446/39 166/447/39 165/448/39
f 167/449/40 161/450/40 164/451/40 168/452/40
