# Blender v2.79 (sub 0) OBJ File: ''
# www.blender.org
mtllib casing_bullet.mtl
o mesh
v 0.031250 0.031250 -0.062500
v 0.031250 0.031250 0.062500
v 0.031250 -0.031250 0.062500
v 0.031250 -0.031250 -0.062500
v -0.031250 -0.031250 0.062500
v -0.031250 0.031250 0.062500
v -0.031250 0.031250 -0.062500
v -0.031250 -0.031250 -0.062500
v 0.031188 0.031188 -0.062500
v 0.031188 0.031187 0.062500
v 0.031188 -0.031188 0.062500
v 0.031188 -0.031187 -0.062500
v -0.031188 -0.031188 0.062500
v -0.031188 0.031187 0.062500
v -0.031188 0.031188 -0.062500
v -0.031188 -0.031187 -0.062500
vt 0.125000 1.000000
vt 0.000000 1.000000
vt 0.000000 0.937500
vt 0.125000 0.937500
vt 0.125000 0.812500
vt 0.125000 0.875000
vt 0.000000 0.875000
vt 0.000000 0.812500
vt 0.187500 0.875000
vt 0.250000 0.875000
vt 0.250000 1.000000
vt 0.187500 1.000000
vt 0.250000 0.687500
vt 0.250000 0.812500
vt 0.187500 0.812500
vt 0.187500 0.687500
vt 0.062500 0.625000
vt 0.000000 0.625000
vt 0.000000 0.562500
vt 0.062500 0.562500
vt 0.125000 0.750000
vt 0.000000 0.750000
vt 0.000000 0.687500
vt 0.125000 0.687500
vt 0.437500 0.937500
vt 0.437500 1.000000
vt 0.312500 1.000000
vt 0.312500 0.937500
vt 0.312500 0.750000
vt 0.375000 0.750000
vt 0.375000 0.875000
vt 0.312500 0.875000
vt 0.375000 0.562500
vt 0.375000 0.687500
vt 0.312500 0.687500
vt 0.312500 0.562500
vt 0.187500 0.625000
vt 0.125000 0.625000
vt 0.125000 0.562500
vt 0.187500 0.562500
vn 1.0000 0.0000 0.0000
vn -1.0000 0.0000 0.0000
vn 0.0000 1.0000 0.0000
vn 0.0000 -1.0000 -0.0000
vn 0.0000 0.0000 -1.0000
usemtl m_49d2eba6-720a-b230-ca48-afb31dcc86d1
s 1
f 1/1/1 2/2/1 3/3/1 4/4/1
f 5/5/2 6/6/2 7/7/2 8/8/2
f 6/9/3 2/10/3 1/11/3 7/12/3
f 4/13/4 3/14/4 5/15/4 8/16/4
f 7/17/5 1/18/5 4/19/5 8/20/5
f 9/21/1 10/22/1 11/23/1 12/24/1
f 13/25/2 14/26/2 15/27/2 16/28/2
f 14/29/3 10/30/3 9/31/3 15/32/3
f 12/33/4 11/34/4 13/35/4 16/36/4
f 15/37/5 9/38/5 12/39/5 16/40/5
