# Blender v2.79 (sub 0) OBJ File: ''
# www.blender.org
mtllib casing_shell.mtl
o mesh
v 0.031250 0.031250 -0.093750
v 0.031250 0.031250 0.093750
v 0.031250 -0.031250 0.093750
v 0.031250 -0.031250 -0.093750
v -0.031250 -0.031250 0.093750
v -0.031250 0.031250 0.093750
v -0.031250 0.031250 -0.093750
v -0.031250 -0.031250 -0.093750
v 0.031188 -0.031188 0.093750
v 0.031188 0.031187 0.093750
v 0.031188 0.031188 -0.093750
v 0.031188 -0.031187 -0.093750
v -0.031188 0.031188 -0.093750
v -0.031188 0.031187 0.093750
v -0.031188 -0.031188 0.093750
v -0.031188 -0.031187 -0.093750
v 0.039062 -0.039062 -0.093750
v 0.039062 0.039063 -0.093750
v -0.039062 0.039063 -0.093750
v -0.039062 -0.039062 -0.093750
v -0.039062 0.039063 -0.093812
v 0.039062 0.039063 -0.093812
v 0.039062 -0.039062 -0.093813
v -0.039062 -0.039062 -0.093813
vt 0.437500 1.000000
vt 0.250000 1.000000
vt 0.250000 0.937500
vt 0.437500 0.937500
vt 0.437500 0.812500
vt 0.437500 0.875000
vt 0.250000 0.875000
vt 0.250000 0.812500
vt 0.250000 0.562500
vt 0.312500 0.562500
vt 0.312500 0.750000
vt 0.250000 0.750000
vt 0.437500 0.562500
vt 0.437500 0.750000
vt 0.375000 0.750000
vt 0.375000 0.562500
vt 0.187500 0.437500
vt 0.187500 0.500000
vt 0.000000 0.500000
vt 0.000000 0.437500
vt 0.687500 1.000000
vt 0.500000 1.000000
vt 0.500000 0.937500
vt 0.687500 0.937500
vt 0.562500 0.687500
vt 0.562500 0.875000
vt 0.500000 0.875000
vt 0.500000 0.687500
vt 0.250000 0.312500
vt 0.312500 0.312500
vt 0.312500 0.500000
vt 0.250000 0.500000
vt 0.187500 0.812500
vt 0.187500 1.000000
vt 0.000000 1.000000
vt 0.000000 0.812500
vt 0.187500 0.750000
vt 0.000000 0.750000
vt 0.000000 0.562500
vt 0.187500 0.562500
vn 1.0000 0.0000 0.0000
vn -1.0000 0.0000 0.0000
vn 0.0000 1.0000 0.0000
vn 0.0000 -1.0000 -0.0000
vn 0.0000 -0.0000 1.0000
vn 0.0000 0.0000 -1.0000
usemtl m_b5375de1-4e17-1d5a-e501-4835585358f1
s 1
f 1/1/1 2/2/1 3/3/1 4/4/1
f 5/5/2 6/6/2 7/7/2 8/8/2
f 6/9/3 2/10/3 1/11/3 7/12/3
f 4/13/4 3/14/4 5/15/4 8/16/4
f 9/17/2 10/18/2 11/19/2 12/20/2
f 13/21/1 14/22/1 15/23/1 16/24/1
f 11/25/4 10/26/4 14/27/4 13/28/4
f 15/29/3 9/30/3 12/31/3 16/32/3
f 17/33/5 18/34/5 19/35/5 20/36/5
f 21/37/6 22/38/6 23/39/6 24/40/6
