# Blender v2.79 (sub 0) OBJ File: ''
# www.blender.org
mtllib heart.mtl
o heart
v 0.035561 0.021811 0.006036
v -0.008487 0.037827 0.006735
v 0.050297 0.199183 0.013780
v 0.094346 0.183166 0.013081
v 0.035561 0.019766 0.052866
v 0.094346 0.181122 0.059911
v -0.008487 0.035783 0.053566
v 0.050297 0.197139 0.060611
v 0.004189 0.038433 -0.012056
v -0.041974 0.030417 -0.013470
v -0.071820 0.197109 0.015923
v -0.025657 0.205126 0.017336
v 0.004189 0.030293 0.034107
v -0.025657 0.196986 0.063499
v -0.041974 0.022277 0.032693
v -0.071820 0.188970 0.062086
vt 0.000000 0.764706
vt 0.062500 0.764706
vt 0.062500 0.941176
vt 0.000000 0.941176
vt 0.000000 0.764706
vt 0.062500 0.764706
vt 0.062500 0.941176
vt 0.000000 0.941176
vt 0.062500 0.764706
vt 0.125000 0.764706
vt 0.125000 0.941176
vt 0.062500 0.941176
vt 0.125000 0.764706
vt 0.125000 0.941176
vt 0.000000 0.941176
vt 0.062500 0.941176
vt 0.062500 1.000000
vt 0.000000 1.000000
vt 0.062500 0.941176
vt 0.125000 0.941176
vt 0.125000 1.000000
vt 0.062500 1.000000
vt 0.062500 0.764706
vt 0.125000 0.764706
vt 0.125000 0.941176
vt 0.062500 0.941176
vt 0.187500 0.764706
vt 0.250000 0.764706
vt 0.250000 0.941176
vt 0.187500 0.941176
vt 0.000000 0.764706
vt 0.062500 0.764706
vt 0.062500 0.941176
vt 0.000000 0.941176
vt 0.187500 0.764706
vt 0.187500 0.941176
vt 0.062500 1.000000
vt 0.000000 1.000000
vt 0.062500 0.941176
vt 0.125000 0.941176
vt 0.125000 1.000000
vt 0.062500 1.000000
vn -0.0000 0.0436 -0.9990
vn 0.9397 -0.3417 -0.0149
vn -0.0000 -0.0436 0.9990
vn -0.9397 0.3417 0.0149
vn 0.3420 0.9388 0.0410
vn -0.3420 -0.9388 -0.0410
vn -0.0000 0.1736 -0.9848
vn 0.9848 0.1710 0.0302
vn 0.0000 -0.1736 0.9848
vn -0.9848 -0.1710 -0.0302
vn -0.1736 0.9698 0.1710
vn 0.1736 -0.9698 -0.1710
usemtl m_f9b17cc5-00aa-2780-255d-f3323ce797cd
s 1
f 1/1/1 2/2/1 3/3/1 4/4/1
f 5/5/2 1/6/2 4/7/2 6/8/2
f 7/9/3 5/10/3 6/11/3 8/12/3
f 2/2/4 7/13/4 8/14/4 3/3/4
f 8/15/5 6/16/5 4/17/5 3/18/5
f 2/19/6 1/20/6 5/21/6 7/22/6
f 9/23/7 10/24/7 11/25/7 12/26/7
f 13/27/8 9/28/8 12/29/8 14/30/8
f 15/31/9 13/32/9 14/33/9 16/34/9
f 10/24/10 15/35/10 16/36/10 11/25/10
f 16/34/11 14/33/11 12/37/11 11/38/11
f 10/39/12 9/40/12 13/41/12 15/42/12
o pulsatez:16|-0.125|0|-7,pulsatez:8|0.125|0|7,heart
v 0.062500 -0.125000 -0.062500
v -0.062500 -0.125000 -0.062500
v -0.062500 0.062500 -0.062500
v 0.062500 0.062500 -0.062500
v 0.062500 -0.125000 0.062500
v 0.062500 0.062500 0.062500
v -0.062500 -0.125000 0.062500
v -0.062500 0.062500 0.062500
vt 0.250000 0.647059
vt 0.375000 0.647059
vt 0.375000 0.823529
vt 0.250000 0.823529
vt 0.375000 0.823529
vt 0.500000 0.823529
vt 0.500000 1.000000
vt 0.375000 1.000000
vt 0.375000 0.647059
vt 0.500000 0.647059
vt 0.500000 0.823529
vt 0.375000 0.823529
vt 0.250000 0.823529
vt 0.375000 0.823529
vt 0.375000 1.000000
vt 0.250000 1.000000
vt 0.125000 0.764706
vt 0.250000 0.764706
vt 0.250000 0.882353
vt 0.125000 0.882353
vt 0.125000 0.882353
vt 0.250000 0.882353
vt 0.250000 1.000000
vt 0.125000 1.000000
vn 0.0000 0.0000 -1.0000
vn 1.0000 0.0000 0.0000
vn 0.0000 -0.0000 1.0000
vn -1.0000 0.0000 0.0000
vn 0.0000 1.0000 0.0000
vn 0.0000 -1.0000 -0.0000
usemtl m_f9b17cc5-00aa-2780-255d-f3323ce797cd
s 1
f 17/43/13 18/44/13 19/45/13 20/46/13
f 21/47/14 17/48/14 20/49/14 22/50/14
f 23/51/15 21/52/15 22/53/15 24/54/15
f 18/55/16 23/56/16 24/57/16 19/58/16
f 24/59/17 22/60/17 20/61/17 19/62/17
f 18/63/18 17/64/18 21/65/18 23/66/18
