# Blender v2.79 (sub 0) OBJ File: ''
# www.blender.org
mtllib muzzleflash_long.mtl
o iris
v 0.031250 0.031250 0.000000
v 0.015625 0.015625 0.031250
v 0.015625 -0.015625 0.031250
v 0.031250 -0.031250 -0.000000
v -0.015625 -0.015625 0.031250
v -0.015625 0.015625 0.031250
v -0.031250 0.031250 0.000000
v -0.031250 -0.031250 -0.000000
vt 0.375000 1.000000
vt 0.343750 1.000000
vt 0.343750 0.968750
vt 0.375000 0.968750
vt 0.375000 0.937500
vt 0.375000 0.968750
vt 0.343750 0.968750
vt 0.343750 0.937500
vt 0.406250 0.968750
vt 0.406250 1.000000
vt 0.375000 1.000000
vt 0.437500 0.968750
vt 0.437500 1.000000
vt 0.406250 1.000000
vt 0.406250 0.968750
vt 0.406250 0.937500
vn 0.8944 0.0000 0.4472
vn -0.8944 -0.0000 0.4472
vn 0.0000 0.8944 0.4472
vn 0.0000 -0.8944 0.4472
vn 0.0000 -0.0000 1.0000
usemtl m_02d796d2-91fc-8678-7008-bbe457ba7fc8
s 1
f 1/1/1 2/2/1 3/3/1 4/4/1
f 5/5/2 6/6/2 7/7/2 8/8/2
f 6/6/3 2/9/3 1/10/3 7/11/3
f 4/12/4 3/13/4 5/14/4 8/15/4
f 3/16/5 2/9/5 6/6/5 5/5/5
o boom_innie
v 0.046875 -0.046875 0.187500
v 0.046875 0.046875 0.187500
v 0.015625 0.015625 0.000000
v 0.015625 -0.015625 -0.000000
v -0.015625 0.015625 0.000000
v -0.046875 0.046875 0.187500
v -0.046875 -0.046875 0.187500
v -0.015625 -0.015625 -0.000000
v -0.015625 0.015625 0.484375
v 0.015625 0.015625 0.484375
v 0.015625 -0.015625 0.484375
v -0.015625 -0.015625 0.484375
vt 0.187500 0.781250
vt 0.250000 0.781250
vt 0.250000 0.687500
vt 0.187500 0.687500
vt 0.125000 0.781250
vt 0.125000 0.687500
vt 0.062500 0.687500
vt 0.062500 0.781250
vt 0.187500 0.781250
vt 0.187500 0.687500
vt 0.000000 0.781250
vt 0.062500 0.781250
vt 0.062500 0.687500
vt 0.000000 0.687500
vt 0.312500 0.781250
vt 0.250000 0.781250
vt 0.250000 0.718750
vt 0.312500 0.718750
vt 0.187500 0.687500
vt 0.250000 0.687500
vt 0.250000 0.593750
vt 0.187500 0.593750
vt 0.125000 0.687500
vt 0.187500 0.687500
vt 0.187500 0.593750
vt 0.125000 0.593750
vt 0.062500 0.687500
vt 0.125000 0.687500
vt 0.125000 0.593750
vt 0.062500 0.593750
vt 0.000000 0.687500
vt 0.062500 0.687500
vt 0.062500 0.593750
vt 0.000000 0.593750
vn -0.9864 -0.0000 0.1644
vn 0.9864 -0.0000 0.1644
vn 0.0000 -0.9864 0.1644
vn 0.0000 0.9864 0.1644
vn 0.0000 0.0000 -1.0000
vn -0.9945 0.0000 -0.1047
vn 0.0000 -0.9945 -0.1047
vn 0.9945 0.0000 -0.1047
vn 0.0000 0.9945 -0.1047
usemtl m_02d796d2-91fc-8678-7008-bbe457ba7fc8
s 1
f 9/17/6 10/18/6 11/19/6 12/20/6
f 13/21/7 14/22/7 15/23/7 16/24/7
f 11/25/8 10/26/8 14/22/8 13/21/8
f 15/27/9 9/28/9 12/29/9 16/30/9
f 17/31/10 18/32/10 19/33/10 20/34/10
f 9/35/11 19/36/11 18/37/11 10/38/11
f 10/39/12 18/40/12 17/41/12 14/42/12
f 14/43/13 17/44/13 20/45/13 15/46/13
f 15/47/14 20/48/14 19/49/14 9/50/14
o flame_translucent
v 0.031250 0.031250 0.000000
v 0.187500 0.187500 0.125000
v 0.187500 -0.187500 0.125000
v 0.031250 -0.031250 -0.000000
v -0.187500 -0.187500 0.125000
v -0.187500 0.187500 0.125000
v -0.031250 0.031250 0.000000
v -0.031250 -0.031250 -0.000000
v 0.125000 -0.125000 0.125000
v 0.125000 0.125000 0.125000
v 0.031250 0.031250 0.000000
v 0.031250 -0.031250 -0.000000
v -0.031250 0.031250 0.000000
v -0.125000 0.125000 0.125000
v -0.125000 -0.125000 0.125000
v -0.031250 -0.031250 -0.000000
vt 0.833333 0.375000
vt 0.750000 0.562500
vt 1.000000 0.562500
vt 0.916667 0.375000
vt 0.250000 0.562500
vt 0.500000 0.562500
vt 0.416667 0.375000
vt 0.333333 0.375000
vt 0.750000 0.562500
vt 0.500000 0.562500
vt 0.583333 0.375000
vt 0.666667 0.375000
vt 0.083333 0.375000
vt 0.000000 0.562500
vt 0.166667 0.375000
vt 1.000000 0.562500
vt 0.750000 0.562500
vt 0.833333 0.375000
vt 0.916667 0.375000
vt 0.416667 0.375000
vt 0.500000 0.562500
vt 0.250000 0.562500
vt 0.333333 0.375000
vt 0.583333 0.375000
vt 0.500000 0.562500
vt 0.750000 0.562500
vt 0.666667 0.375000
vt 0.000000 0.562500
vt 0.083333 0.375000
vt 0.166667 0.375000
vn 0.6247 0.0000 -0.7809
vn -0.6247 0.0000 -0.7809
vn 0.0000 0.6247 -0.7809
vn 0.0000 -0.6247 -0.7809
vn -0.8000 -0.0000 0.6000
vn 0.8000 -0.0000 0.6000
vn 0.0000 -0.8000 0.6000
vn 0.0000 0.8000 0.6000
usemtl m_02d796d2-91fc-8678-7008-bbe457ba7fc8
s 1
f 21/51/15 22/52/15 23/53/15 24/54/15
f 25/55/16 26/56/16 27/57/16 28/58/16
f 26/59/17 22/60/17 21/61/17 27/62/17
f 24/63/18 23/64/18 25/55/18 28/65/18
f 29/66/19 30/67/19 31/68/19 32/69/19
f 33/70/20 34/71/20 35/72/20 36/73/20
f 31/74/21 30/75/21 34/76/21 33/77/21
f 35/72/22 29/78/22 32/79/22 36/80/22
o boom_outie_translucent
v 0.062500 -0.062500 0.187500
v 0.062500 0.062500 0.187500
v 0.031250 0.031250 0.000000
v 0.031250 -0.031250 -0.000000
v -0.031250 0.031250 0.000000
v -0.062500 0.062500 0.187500
v -0.062500 -0.062500 0.187500
v -0.031250 -0.031250 -0.000000
v -0.031250 0.031250 0.500000
v 0.031250 0.031250 0.500000
v 0.031250 -0.031250 0.500000
v -0.031250 -0.031250 0.500000
vt 0.187500 1.000000
vt 0.250000 1.000000
vt 0.250000 0.906250
vt 0.187500 0.906250
vt 0.125000 1.000000
vt 0.125000 0.906250
vt 0.062500 0.906250
vt 0.062500 1.000000
vt 0.187500 1.000000
vt 0.187500 0.906250
vt 0.000000 1.000000
vt 0.062500 1.000000
vt 0.062500 0.906250
vt 0.000000 0.906250
vt 0.312500 1.000000
vt 0.250000 1.000000
vt 0.250000 0.937500
vt 0.312500 0.937500
vt 0.125000 0.906250
vt 0.187500 0.906250
vt 0.187500 0.812500
vt 0.125000 0.812500
vt 0.187500 0.906250
vt 0.250000 0.906250
vt 0.250000 0.812500
vt 0.187500 0.812500
vt 0.000000 0.906250
vt 0.062500 0.906250
vt 0.062500 0.812500
vt 0.000000 0.812500
vt 0.062500 0.906250
vt 0.125000 0.906250
vt 0.125000 0.812500
vt 0.062500 0.812500
vn -0.9864 0.0000 0.1644
vn 0.9864 0.0000 0.1644
vn 0.0000 -0.9864 0.1644
vn 0.0000 0.9864 0.1644
vn 0.0000 0.0000 -1.0000
vn 0.0000 -0.9950 -0.0995
vn -0.9950 0.0000 -0.0995
vn 0.0000 0.9950 -0.0995
vn 0.9950 0.0000 -0.0995
usemtl m_02d796d2-91fc-8678-7008-bbe457ba7fc8
s 1
f 37/81/23 38/82/23 39/83/23 40/84/23
f 41/85/24 42/86/24 43/87/24 44/88/24
f 39/89/25 38/90/25 42/86/25 41/85/25
f 43/91/26 37/92/26 40/93/26 44/94/26
f 45/95/27 46/96/27 47/97/27 48/98/27
f 46/99/28 45/100/28 42/101/28 38/102/28
f 47/103/29 46/104/29 38/105/29 37/106/29
f 48/107/30 47/108/30 37/109/30 43/110/30
f 45/111/31 48/112/31 43/113/31 42/114/31
