# Blender v2.79 (sub 0) OBJ File: ''
# www.blender.org
mtllib accessory_scope_default.mtl
o scope_glint
v 0.031250 0.101563 0.226562
v -0.031250 0.101563 0.226562
v -0.031250 0.039063 0.226562
v 0.031250 0.039063 0.226562
vt 1.000000 1.000000
vt 0.875000 1.000000
vt 0.875000 0.875000
vt 1.000000 0.875000
vn 0.0000 0.0000 1.0000
usemtl m_70ab7597-7d81-8584-245e-574ac1b2e8a0
s 1
f 1/1/1 2/2/1 3/3/1 4/4/1
o scope
v -0.015625 0.046875 0.031250
v -0.015625 0.046875 -0.000000
v -0.031250 0.000000 0.000000
v -0.031250 0.000000 0.031250
v 0.031250 0.000000 -0.000000
v 0.015625 0.046875 -0.000000
v 0.015625 0.046875 0.031250
v 0.031250 0.000000 0.031250
v -0.015625 0.046875 0.101562
v -0.015625 0.046875 0.070312
v -0.031250 0.000000 0.070313
v -0.031250 0.000000 0.101563
v 0.031250 0.000000 0.070312
v 0.015625 0.046875 0.070312
v 0.015625 0.046875 0.101562
v 0.031250 0.000000 0.101562
v -0.015625 0.101563 0.140625
v -0.015625 0.093750 0.109375
v -0.023437 0.080729 0.109375
v -0.031250 0.080729 0.140625
v 0.031250 0.080729 0.140625
v 0.023438 0.080729 0.109375
v 0.015625 0.093750 0.109375
v 0.015625 0.101563 0.140625
v -0.015625 0.039063 0.140625
v -0.015625 0.046875 0.109375
v 0.015625 0.046875 0.109375
v 0.015625 0.039063 0.140625
v 0.015625 0.101562 -0.093750
v 0.031250 0.080729 -0.093750
v -0.031250 0.080729 -0.093750
v -0.015625 0.101562 -0.093750
v -0.015625 0.101563 0.218750
v -0.031250 0.080729 0.218750
v 0.031250 0.080729 0.218750
v 0.015625 0.101563 0.218750
v -0.015625 0.039062 -0.093750
v -0.031250 0.059896 -0.093750
v 0.031250 0.059896 -0.093750
v 0.015625 0.039062 -0.093750
v 0.023438 0.059896 0.109375
v 0.031250 0.059896 0.140625
v 0.015625 0.039063 0.218750
v 0.031250 0.059896 0.218750
v -0.031250 0.059896 0.218750
v -0.015625 0.039063 0.218750
v -0.031250 0.059896 0.140625
v -0.023437 0.059896 0.109375
v 0.031250 0.080729 -0.062500
v 0.023437 0.080729 -0.031250
v 0.023437 0.059896 -0.031250
v 0.031250 0.059896 -0.062500
v 0.015625 0.046875 -0.031250
v 0.015625 0.039062 -0.062500
v -0.015625 0.046875 -0.031250
v -0.015625 0.039062 -0.062500
v -0.023438 0.059896 -0.031250
v -0.031250 0.059896 -0.062500
v -0.023438 0.080729 -0.031250
v -0.031250 0.080729 -0.062500
v -0.015625 0.093750 -0.031250
v -0.015625 0.101562 -0.062500
v 0.015625 0.093750 -0.031250
v 0.015625 0.101562 -0.062500
vt 0.750000 0.500000
vt 0.718750 0.500000
vt 0.718750 0.468750
vt 0.750000 0.468750
vt 0.593750 0.250000
vt 0.593750 0.281250
vt 0.562500 0.281250
vt 0.562500 0.250000
vt 0.375000 0.250000
vt 0.406250 0.250000
vt 0.406250 0.281250
vt 0.375000 0.281250
vt 0.468750 0.250000
vt 0.468750 0.281250
vt 0.437500 0.281250
vt 0.437500 0.250000
vt 0.750000 0.531250
vt 0.742188 0.562500
vt 0.726562 0.562500
vt 0.718750 0.531250
vt 0.523438 0.281250
vt 0.507812 0.281250
vt 0.500000 0.250000
vt 0.531250 0.250000
vt 0.218750 0.250000
vt 0.187500 0.250000
vt 0.187500 0.218750
vt 0.218750 0.218750
vt 0.781250 0.625000
vt 0.781250 0.656250
vt 0.750000 0.656250
vt 0.750000 0.625000
vt 0.718750 0.406250
vt 0.750000 0.406250
vt 0.750000 0.437500
vt 0.718750 0.437500
vt 0.750000 0.343750
vt 0.750000 0.375000
vt 0.718750 0.375000
vt 0.718750 0.343750
vt 0.750000 0.281250
vt 0.742188 0.312500
vt 0.726562 0.312500
vt 0.718750 0.281250
vt 0.773438 0.937500
vt 0.757812 0.937500
vt 0.750000 0.906250
vt 0.781250 0.906250
vt 0.297020 0.687083
vt 0.273495 0.683742
vt 0.273495 0.676147
vt 0.297132 0.674132
vt 0.390327 0.861400
vt 0.414005 0.863405
vt 0.414005 0.870998
vt 0.390519 0.874353
vt 0.445312 0.773438
vt 0.445312 0.749678
vt 0.460938 0.749678
vt 0.460938 0.773438
vt 0.148438 0.414062
vt 0.148438 0.437822
vt 0.132812 0.437822
vt 0.132812 0.414062
vt 0.632812 0.250000
vt 0.625000 0.239584
vt 0.656250 0.239584
vt 0.648438 0.250000
vt 0.695312 0.250000
vt 0.687500 0.239584
vt 0.718750 0.239584
vt 0.710938 0.250000
vt 0.648438 0.218750
vt 0.656250 0.229166
vt 0.625000 0.229166
vt 0.632812 0.218750
vt 0.390479 0.842050
vt 0.414005 0.845394
vt 0.414005 0.852985
vt 0.390368 0.855001
vt 0.827963 0.989581
vt 0.851725 0.989581
vt 0.851725 1.000000
vt 0.827963 1.000000
vt 0.710938 0.218750
vt 0.718750 0.229166
vt 0.687500 0.229166
vt 0.695312 0.218750
vt 0.297173 0.667732
vt 0.273495 0.665727
vt 0.273495 0.658134
vt 0.296981 0.654782
vt 0.093912 0.218750
vt 0.070150 0.218750
vt 0.070150 0.208331
vt 0.093912 0.208331
vt 0.804928 0.812500
vt 0.788822 0.812500
vt 0.788822 0.802081
vt 0.804928 0.802081
vt 0.523380 0.863404
vt 0.523380 0.852985
vt 0.539360 0.854993
vt 0.523380 0.845392
vt 0.539076 0.842042
vt 0.132812 0.563303
vt 0.132812 0.547197
vt 0.148438 0.547197
vt 0.148438 0.563303
vt 0.148365 0.654790
vt 0.164120 0.658134
vt 0.164120 0.665729
vt 0.148197 0.667741
vt 0.804447 0.864581
vt 0.820553 0.864581
vt 0.820553 0.875000
vt 0.804447 0.875000
vt 0.164120 0.676147
vt 0.148140 0.674139
vt 0.164120 0.683741
vt 0.148424 0.687091
vt 0.460938 0.624197
vt 0.460938 0.640303
vt 0.445312 0.640303
vt 0.445312 0.624197
vt 0.539135 0.874342
vt 0.523380 0.870998
vt 0.539303 0.861391
vt 0.132572 0.667607
vt 0.132742 0.654587
vt 0.148196 0.667811
vt 0.554696 0.841632
vt 0.554981 0.854651
vt 0.148438 0.578928
vt 0.132812 0.578928
vt 0.788822 0.875000
vt 0.788822 0.864581
vt 0.820553 0.802081
vt 0.820553 0.812500
vt 0.554928 0.861525
vt 0.554759 0.874546
vt 0.539304 0.861322
vt 0.132804 0.687500
vt 0.132519 0.674481
vt 0.148425 0.687158
vt 0.445312 0.608572
vt 0.460938 0.608572
vt 0.336194 0.674399
vt 0.336081 0.687421
vt 0.351462 0.875000
vt 0.351269 0.861980
vt 0.460938 0.812500
vt 0.445312 0.812500
vt 0.788900 1.000000
vt 0.788900 0.989581
vt 0.132975 0.208331
vt 0.132975 0.218750
vt 0.351306 0.854734
vt 0.351418 0.841713
vt 0.390367 0.855072
vt 0.336038 0.654131
vt 0.336231 0.667152
vt 0.296980 0.654712
vt 0.132812 0.375000
vt 0.148438 0.375000
vn -0.9487 0.3162 0.0000
vn 0.9487 0.3162 -0.0000
vn -0.0000 1.0000 -0.0000
vn 0.0000 -1.0000 0.0000
vn -0.0000 -0.0000 -1.0000
vn 0.0000 0.0000 1.0000
vn -0.8505 0.5103 -0.1276
vn 0.8384 0.5031 -0.2096
vn 0.0000 0.9701 -0.2425
vn -0.0000 -0.9701 -0.2425
vn 0.8505 -0.5103 -0.1276
vn 0.9701 0.0000 -0.2425
vn -0.8384 -0.5031 -0.2096
vn -0.9701 -0.0000 -0.2425
vn 0.9701 0.0000 0.2425
vn 1.0000 0.0000 -0.0000
vn 0.8384 -0.5031 0.2096
vn 0.8575 -0.5145 -0.0000
vn 0.0000 -0.9701 0.2425
vn -0.8505 -0.5103 0.1276
vn -0.8575 -0.5145 0.0000
vn -0.9701 0.0000 0.2425
vn -1.0000 0.0000 0.0000
vn -0.8384 0.5031 0.2096
vn -0.8575 0.5145 0.0000
vn 0.0000 0.9701 0.2425
vn 0.8505 0.5103 0.1276
vn 0.8575 0.5145 -0.0000
vn -0.8000 -0.6000 0.0000
vn 0.8000 -0.6000 0.0000
vn 0.8000 0.6000 -0.0000
vn -0.8000 0.6000 -0.0000
usemtl m_70ab7597-7d81-8584-245e-574ac1b2e8a0
s 1
f 5/5/2 6/6/2 7/7/2 8/8/2
f 9/9/3 10/10/3 11/11/3 12/12/3
f 10/13/4 6/14/4 5/15/4 11/16/4
f 8/17/5 7/18/5 9/19/5 12/20/5
f 7/21/6 6/22/6 10/23/6 9/24/6
f 11/25/7 5/26/7 8/27/7 12/28/7
f 13/29/2 14/30/2 15/31/2 16/32/2
f 17/33/3 18/34/3 19/35/3 20/36/3
f 18/37/4 14/38/4 13/39/4 19/40/4
f 16/41/5 15/42/5 17/43/5 20/44/5
f 15/45/6 14/46/6 18/47/6 17/48/6
f 19/49/7 13/50/7 16/51/7 20/52/7
f 21/53/8 22/54/8 23/55/8 24/56/8
f 25/57/9 26/58/9 27/59/9 28/60/9
f 28/61/10 27/62/10 22/63/10 21/64/10
f 29/65/11 30/66/11 31/67/11 32/68/11
f 33/69/6 34/70/6 35/71/6 36/72/6
f 37/73/7 38/74/7 39/75/7 40/76/7
f 41/77/6 42/78/6 43/79/6 44/80/6
f 42/78/6 35/71/6 34/70/6 43/79/6
f 32/81/12 31/82/12 45/83/12 46/84/12
f 46/85/13 45/86/13 26/87/13 25/88/13
f 47/89/7 48/90/7 49/91/7 50/92/7
f 48/90/7 39/75/7 38/74/7 49/91/7
f 51/93/14 52/94/14 30/95/14 29/96/14
f 24/97/15 23/98/15 52/99/15 51/100/15
f 53/101/16 54/102/16 55/103/16 56/104/16
f 54/105/17 26/58/17 45/83/17 55/106/17
f 56/107/18 55/106/18 57/108/18 58/109/18
f 55/106/19 45/83/19 31/82/19 57/108/19
f 58/110/20 57/111/20 59/112/20 60/113/20
f 57/111/5 31/67/5 30/66/5 59/112/5
f 60/114/21 59/115/21 61/116/21 62/117/21
f 59/115/22 30/95/22 52/94/22 61/116/22
f 62/118/23 61/119/23 63/120/23 64/121/23
f 61/116/24 52/94/24 23/55/24 63/122/24
f 64/123/25 63/122/25 65/124/25 66/125/25
f 63/122/26 23/55/26 22/54/26 65/124/26
f 66/126/27 65/127/27 67/128/27 68/129/27
f 65/127/4 22/63/4 27/62/4 67/128/4
f 68/130/28 67/131/28 54/105/28 53/132/28
f 67/131/29 27/59/29 26/58/29 54/105/29
f 42/133/30 41/134/30 60/114/30 62/135/30
f 44/136/31 43/137/31 56/107/31 58/109/31
f 41/138/5 44/139/5 58/110/5 60/113/5
f 35/140/24 42/141/24 62/118/24 64/121/24
f 43/142/17 34/143/17 53/101/17 56/104/17
f 34/144/32 33/145/32 68/130/32 53/146/32
f 36/147/33 35/148/33 64/123/33 66/149/33
f 33/150/4 36/151/4 66/126/4 68/129/4
f 38/152/33 37/153/33 21/53/33 24/56/33
f 40/154/32 39/155/32 25/57/32 28/60/32
f 37/156/4 40/157/4 28/61/4 21/64/4
f 39/158/17 48/159/17 46/85/17 25/88/17
f 49/160/24 38/161/24 24/97/24 51/100/24
f 48/162/31 47/163/31 32/81/31 46/164/31
f 50/165/30 49/166/30 51/93/30 29/167/30
f 47/168/5 50/169/5 29/65/5 32/68/5
