# Blender v2.79 (sub 0) OBJ File: ''
# www.blender.org
mtllib workbench.mtl
o hammer
v -0.247752 0.937500 -0.230905
v -0.343423 0.937500 0.000065
v -0.343423 0.875000 0.000065
v -0.247752 0.875000 -0.230905
v -0.401166 0.875000 -0.023853
v -0.401166 0.937500 -0.023853
v -0.305495 0.937500 -0.254822
v -0.305495 0.875000 -0.254822
v -0.166092 0.937500 -0.264729
v -0.190010 0.937500 -0.206987
v -0.190010 0.875000 -0.206987
v -0.166092 0.875000 -0.264729
v -0.363237 0.875000 -0.278740
v -0.363237 0.937500 -0.278740
v -0.281577 0.937500 -0.312565
v -0.281577 0.875000 -0.312565
vt 0.203125 0.484375
vt 0.140625 0.484375
vt 0.140625 0.468750
vt 0.203125 0.468750
vt 0.578125 0.843750
vt 0.578125 0.859375
vt 0.515625 0.859375
vt 0.515625 0.843750
vt 0.515625 0.765625
vt 0.531250 0.765625
vt 0.531250 0.828125
vt 0.515625 0.828125
vt 0.531250 0.500000
vt 0.531250 0.562500
vt 0.515625 0.562500
vt 0.515625 0.500000
vt 0.156250 0.406250
vt 0.156250 0.421875
vt 0.140625 0.421875
vt 0.140625 0.406250
vt 0.187500 0.421875
vt 0.171875 0.421875
vt 0.171875 0.406250
vt 0.187500 0.406250
vt 0.218750 0.421875
vt 0.203125 0.421875
vt 0.203125 0.406250
vt 0.218750 0.406250
vt 0.250000 0.406250
vt 0.250000 0.421875
vt 0.234375 0.421875
vt 0.234375 0.406250
vt 0.531250 0.625000
vt 0.578125 0.625000
vt 0.578125 0.640625
vt 0.546875 0.640625
vt 0.187500 0.437500
vt 0.187500 0.453125
vt 0.140625 0.453125
vt 0.156250 0.437500
vt 0.593750 0.812500
vt 0.593750 0.828125
vt 0.546875 0.828125
vt 0.546875 0.812500
vt 0.578125 0.531250
vt 0.546875 0.531250
vt 0.546875 0.515625
vt 0.578125 0.515625
vn 0.9239 0.0000 0.3827
vn -0.9239 0.0000 -0.3827
vn -0.0000 1.0000 0.0000
vn 0.0000 -1.0000 0.0000
vn -0.3827 -0.0000 0.9239
vn 0.3827 0.0000 -0.9239
vn -0.3827 0.0000 -0.9239
usemtl m_a3ac4138-2750-2b07-6211-22c710532713
s 1
f 1/1/1 2/2/1 3/3/1 4/4/1
f 5/5/2 6/6/2 7/7/2 8/8/2
f 6/9/3 2/10/3 1/11/3 7/12/3
f 4/13/4 3/14/4 5/15/4 8/16/4
f 3/17/5 2/18/5 6/19/5 5/20/5
f 7/21/6 1/22/6 4/23/6 8/24/6
f 9/25/1 10/26/1 11/27/1 12/28/1
f 13/29/7 14/30/7 15/31/7 16/32/7
f 14/33/3 10/34/3 9/35/3 15/36/3
f 12/37/4 11/38/4 13/39/4 16/40/4
f 11/41/5 10/42/5 14/43/5 13/44/5
f 15/45/6 9/46/6 12/47/6 16/48/6
o mesh
v 0.437500 0.875000 -0.437500
v 0.437500 0.875000 0.437500
v 0.437500 0.687500 0.437500
v 0.437500 0.687500 -0.437500
v -0.437500 0.687500 0.437500
v -0.437500 0.875000 0.437500
v -0.437500 0.875000 -0.437500
v -0.437500 0.687500 -0.437500
v 0.312500 0.687500 -0.312500
v 0.312500 0.687500 -0.187500
v 0.375000 0.000000 -0.250000
v 0.375000 0.000000 -0.375000
v 0.250000 0.000000 -0.250000
v 0.187500 0.687500 -0.187500
v 0.187500 0.687500 -0.312500
v 0.250000 0.000000 -0.375000
v 0.312500 0.687500 0.187500
v 0.312500 0.687500 0.312500
v 0.375000 -0.000000 0.375000
v 0.375000 -0.000000 0.250000
v 0.250000 -0.000000 0.375000
v 0.187500 0.687500 0.312500
v 0.187500 0.687500 0.187500
v 0.250000 -0.000000 0.250000
v -0.375000 0.000000 -0.250000
v -0.312500 0.687500 -0.187500
v -0.312500 0.687500 -0.312500
v -0.375000 0.000000 -0.375000
v -0.187500 0.687500 -0.312500
v -0.187500 0.687500 -0.187500
v -0.250000 0.000000 -0.250000
v -0.250000 0.000000 -0.375000
v -0.375000 -0.000000 0.375000
v -0.312500 0.687500 0.312500
v -0.312500 0.687500 0.187500
v -0.375000 -0.000000 0.250000
v -0.187500 0.687500 0.187500
v -0.187500 0.687500 0.312500
v -0.250000 -0.000000 0.375000
v -0.250000 -0.000000 0.250000
vt 0.453125 1.000000
vt 0.234375 1.000000
vt 0.234375 0.953125
vt 0.453125 0.953125
vt 0.453125 0.890625
vt 0.453125 0.937500
vt 0.234375 0.937500
vt 0.234375 0.890625
vt 0.000000 0.781250
vt 0.218750 0.781250
vt 0.218750 1.000000
vt 0.000000 1.000000
vt 0.218750 0.546875
vt 0.218750 0.765625
vt 0.000000 0.765625
vt 0.000000 0.546875
vt 0.453125 0.828125
vt 0.453125 0.875000
vt 0.234375 0.875000
vt 0.234375 0.828125
vt 0.453125 0.812500
vt 0.234375 0.812500
vt 0.234375 0.765625
vt 0.453125 0.765625
vt 0.453125 0.562500
vt 0.421875 0.562500
vt 0.421875 0.375000
vt 0.453125 0.375000
vt 0.234375 0.718750
vt 0.421875 0.718750
vt 0.421875 0.750000
vt 0.234375 0.750000
vt 0.140625 0.500000
vt 0.171875 0.500000
vt 0.171875 0.531250
vt 0.140625 0.531250
vt 0.500000 0.828125
vt 0.500000 0.859375
vt 0.468750 0.859375
vt 0.468750 0.828125
vt 0.265625 0.515625
vt 0.265625 0.703125
vt 0.234375 0.703125
vt 0.234375 0.515625
vt 0.625000 0.718750
vt 0.625000 0.750000
vt 0.437500 0.750000
vt 0.437500 0.718750
vt 0.656250 0.968750
vt 0.656250 1.000000
vt 0.468750 1.000000
vt 0.468750 0.968750
vt 0.312500 0.468750
vt 0.312500 0.656250
vt 0.281250 0.656250
vt 0.281250 0.468750
vt 0.187500 0.500000
vt 0.218750 0.500000
vt 0.218750 0.531250
vt 0.187500 0.531250
vt 0.500000 0.781250
vt 0.500000 0.812500
vt 0.468750 0.812500
vt 0.468750 0.781250
vt 0.031250 0.343750
vt 0.031250 0.531250
vt 0.000000 0.531250
vt 0.000000 0.343750
vt 0.468750 0.671875
vt 0.468750 0.703125
vt 0.281250 0.703125
vt 0.281250 0.671875
vt 0.468750 0.921875
vt 0.656250 0.921875
vt 0.656250 0.953125
vt 0.468750 0.953125
vt 0.359375 0.609375
vt 0.328125 0.609375
vt 0.328125 0.421875
vt 0.359375 0.421875
vt 0.468750 0.562500
vt 0.468750 0.531250
vt 0.500000 0.531250
vt 0.500000 0.562500
vt 0.515625 0.703125
vt 0.484375 0.703125
vt 0.484375 0.671875
vt 0.515625 0.671875
vt 0.515625 0.625000
vt 0.515625 0.656250
vt 0.328125 0.656250
vt 0.328125 0.625000
vt 0.078125 0.343750
vt 0.078125 0.531250
vt 0.046875 0.531250
vt 0.046875 0.343750
vt 0.125000 0.343750
vt 0.125000 0.531250
vt 0.093750 0.531250
vt 0.093750 0.343750
vt 0.609375 0.578125
vt 0.609375 0.609375
vt 0.421875 0.609375
vt 0.421875 0.578125
vt 0.468750 0.515625
vt 0.468750 0.484375
vt 0.500000 0.484375
vt 0.500000 0.515625
vt 0.265625 0.500000
vt 0.234375 0.500000
vt 0.234375 0.468750
vt 0.265625 0.468750
vt 0.656250 0.875000
vt 0.656250 0.906250
vt 0.468750 0.906250
vt 0.468750 0.875000
vt 0.406250 0.421875
vt 0.406250 0.609375
vt 0.375000 0.609375
vt 0.375000 0.421875
vn 1.0000 0.0000 0.0000
vn -1.0000 -0.0000 0.0000
vn 0.0000 1.0000 0.0000
vn 0.0000 -1.0000 -0.0000
vn 0.0000 -0.0000 1.0000
vn 0.0000 0.0000 -1.0000
vn 0.9959 0.0905 0.0000
vn -0.9959 -0.0905 0.0000
vn 0.0000 -0.0905 0.9959
vn 0.0000 0.0905 -0.9959
vn 0.0000 0.0905 0.9959
vn 0.0000 -0.0905 -0.9959
vn -0.9959 0.0905 0.0000
vn 0.9959 -0.0905 0.0000
usemtl m_a3ac4138-2750-2b07-6211-22c710532713
s 1
f 17/49/8 18/50/8 19/51/8 20/52/8
f 21/53/9 22/54/9 23/55/9 24/56/9
f 22/57/10 18/58/10 17/59/10 23/60/10
f 20/61/11 19/62/11 21/63/11 24/64/11
f 19/65/12 18/66/12 22/67/12 21/68/12
f 23/69/13 17/70/13 20/71/13 24/72/13
f 25/73/14 26/74/14 27/75/14 28/76/14
f 29/77/15 30/78/15 31/79/15 32/80/15
f 30/81/10 26/82/10 25/83/10 31/84/10
f 28/85/11 27/86/11 29/87/11 32/88/11
f 27/89/16 26/90/16 30/91/16 29/92/16
f 31/93/17 25/94/17 28/95/17 32/96/17
f 33/97/14 34/98/14 35/99/14 36/100/14
f 37/101/15 38/102/15 39/103/15 40/104/15
f 38/105/10 34/106/10 33/107/10 39/108/10
f 36/109/11 35/110/11 37/111/11 40/112/11
f 35/113/18 34/114/18 38/115/18 37/116/18
f 39/117/19 33/118/19 36/119/19 40/120/19
f 41/121/20 42/122/20 43/123/20 44/124/20
f 45/125/21 46/126/21 47/127/21 48/128/21
f 43/129/10 42/130/10 46/131/10 45/132/10
f 47/133/11 41/134/11 44/135/11 48/136/11
f 46/137/16 42/138/16 41/139/16 47/140/16
f 44/141/17 43/142/17 45/143/17 48/144/17
f 49/145/20 50/146/20 51/147/20 52/148/20
f 53/149/21 54/150/21 55/151/21 56/152/21
f 51/153/10 50/154/10 54/155/10 53/156/10
f 55/157/11 49/158/11 52/159/11 56/160/11
f 54/161/18 50/162/18 49/163/18 55/164/18
f 52/165/19 51/166/19 53/167/19 56/168/19
o plane
v 0.212137 0.882812 0.285811
v 0.379561 0.882812 -0.118387
v -0.024637 0.882813 -0.285811
v -0.192061 0.882812 0.118387
vt 0.125000 0.203125
vt 0.125000 0.328125
vt 0.000000 0.328125
vt 0.000000 0.203125
vn 0.0000 1.0000 0.0000
usemtl m_a3ac4138-2750-2b07-6211-22c710532713
s 1
f 57/169/22 58/170/22 59/171/22 60/172/22
o unteether
v -0.388017 0.937500 0.089954
v -0.306357 0.937500 0.123778
v -0.306357 0.875000 0.123778
v -0.388017 0.875000 0.089953
v -0.364100 0.875000 0.147696
v -0.364100 0.937500 0.147696
v -0.404930 0.937500 0.130784
v -0.404930 0.875000 0.130784
v -0.350089 0.875000 0.344841
v -0.350089 0.937500 0.344841
v -0.364100 0.937500 0.147696
v -0.364100 0.875000 0.147696
v -0.306357 0.937500 0.123778
v -0.304305 0.937500 0.292052
v -0.304305 0.875000 0.292052
v -0.306357 0.875000 0.123778
v -0.303880 0.968750 0.088928
v -0.279963 0.968750 0.146670
v -0.279963 0.906250 0.146670
v -0.303880 0.906250 0.088928
v -0.337705 0.906250 0.170588
v -0.337705 0.968750 0.170588
v -0.361623 0.968750 0.112845
v -0.361623 0.906250 0.112845
v -0.277486 0.937500 0.111819
v -0.147990 0.937500 0.261129
v -0.147990 0.875000 0.261129
v -0.277486 0.875000 0.111819
v -0.217692 0.875000 0.256176
v -0.217692 0.937500 0.256176
v -0.335228 0.937500 0.135737
v -0.335228 0.875000 0.135737
v -0.335228 0.875000 0.135737
v -0.335228 0.937500 0.135737
v -0.301404 0.937500 0.054077
v -0.301404 0.875000 0.054077
v -0.260573 0.937500 0.070989
v -0.277486 0.937500 0.111819
v -0.277486 0.875000 0.111819
v -0.260573 0.875000 0.070989
vt 0.312500 0.421875
vt 0.296875 0.421875
vt 0.296875 0.406250
vt 0.312500 0.406250
vt 0.593750 0.453125
vt 0.593750 0.468750
vt 0.578125 0.468750
vt 0.578125 0.453125
vt 0.546875 0.457701
vt 0.562500 0.446653
vt 0.562500 0.468750
vt 0.546875 0.468750
vt 0.551451 0.484375
vt 0.573549 0.484375
vt 0.562500 0.500000
vt 0.551451 0.500000
vt 0.281250 0.406250
vt 0.281250 0.421875
vt 0.265625 0.421875
vt 0.265625 0.406250
vt 0.562500 0.421875
vt 0.546875 0.421875
vt 0.546875 0.406250
vt 0.562500 0.406250
vt 0.312500 0.437500
vt 0.312500 0.453125
vt 0.265625 0.453125
vt 0.265625 0.437500
vt 0.593750 0.562500
vt 0.546875 0.562500
vt 0.546875 0.546875
vt 0.593750 0.546875
vt 0.584735 0.671875
vt 0.535324 0.671875
vt 0.547677 0.659522
vt 0.589676 0.657052
vt 0.481504 0.448249
vt 0.469151 0.460602
vt 0.469151 0.411191
vt 0.483974 0.406250
vt 0.593750 0.406250
vt 0.578125 0.406250
vt 0.578125 0.390625
vt 0.593750 0.390625
vt 0.609375 0.484375
vt 0.609375 0.500000
vt 0.593750 0.500000
vt 0.593750 0.484375
vt 0.156250 0.390625
vt 0.140625 0.390625
vt 0.140625 0.375000
vt 0.156250 0.375000
vt 0.187500 0.375000
vt 0.187500 0.390625
vt 0.171875 0.390625
vt 0.171875 0.375000
vt 0.609375 0.812500
vt 0.625000 0.812500
vt 0.625000 0.828125
vt 0.609375 0.828125
vt 0.218750 0.375000
vt 0.218750 0.390625
vt 0.203125 0.390625
vt 0.203125 0.375000
vt 0.625000 0.781250
vt 0.625000 0.796875
vt 0.609375 0.796875
vt 0.609375 0.781250
vt 0.250000 0.390625
vt 0.234375 0.390625
vt 0.234375 0.375000
vt 0.250000 0.375000
vt 0.250000 0.453125
vt 0.203125 0.453125
vt 0.203125 0.437500
vt 0.250000 0.437500
vt 0.593750 0.781250
vt 0.593750 0.796875
vt 0.546875 0.796875
vt 0.546875 0.781250
vt 0.518095 0.442376
vt 0.531250 0.430023
vt 0.531250 0.479434
vt 0.515625 0.484375
vt 0.540265 0.687500
vt 0.589676 0.687500
vt 0.577323 0.700655
vt 0.535324 0.703125
vt 0.515625 0.390625
vt 0.515625 0.406250
vt 0.500000 0.406250
vt 0.500000 0.390625
vt 0.609375 0.531250
vt 0.593750 0.531250
vt 0.593750 0.515625
vt 0.609375 0.515625
vt 0.375000 0.390625
vt 0.375000 0.406250
vt 0.359375 0.406250
vt 0.359375 0.390625
vt 0.609375 0.640625
vt 0.593750 0.640625
vt 0.593750 0.625000
vt 0.609375 0.625000
vt 0.593750 0.437500
vt 0.578125 0.437500
vt 0.589174 0.421875
vt 0.593750 0.421875
vt 0.609375 0.848326
vt 0.593750 0.859375
vt 0.593750 0.843750
vt 0.609375 0.843750
vt 0.343750 0.406250
vt 0.328125 0.406250
vt 0.328125 0.390625
vt 0.343750 0.390625
vt 0.406250 0.390625
vt 0.406250 0.406250
vt 0.390625 0.406250
vt 0.390625 0.390625
vn 0.3827 0.0000 -0.9239
vn -0.3827 0.0000 0.9239
vn 0.0000 1.0000 -0.0000
vn 0.0000 -1.0000 0.0000
vn 0.3827 0.0000 0.9239
vn -0.9239 0.0000 -0.3827
vn -0.9975 0.0000 0.0709
vn 0.9999 0.0000 -0.0122
vn 0.7555 0.0000 0.6552
vn -0.3827 0.0000 -0.9239
vn 0.9239 0.0000 -0.3827
vn -0.9239 0.0000 0.3827
vn 0.7555 0.0000 -0.6552
vn -0.7157 0.0000 0.6984
vn -0.0709 0.0000 0.9975
vn 0.9239 0.0000 0.3827
usemtl m_a3ac4138-2750-2b07-6211-22c710532713
s 1
f 61/173/23 62/174/23 63/175/23 64/176/23
f 65/177/24 66/178/24 67/179/24 68/180/24
f 66/181/25 62/182/25 61/183/25 67/184/25
f 64/185/26 63/186/26 65/187/26 68/188/26
f 63/189/27 62/190/27 66/191/27 65/192/27
f 67/193/28 61/194/28 64/195/28 68/196/28
f 69/197/29 70/198/29 71/199/29 72/200/29
f 73/201/30 74/202/30 75/203/30 76/204/30
f 71/205/25 70/206/25 74/207/25 73/208/25
f 75/209/26 69/210/26 72/211/26 76/212/26
f 74/213/31 70/214/31 69/215/31 75/216/31
f 72/217/32 71/218/32 73/219/32 76/220/32
f 77/221/33 78/222/33 79/223/33 80/224/33
f 81/225/34 82/226/34 83/227/34 84/228/34
f 82/229/25 78/230/25 77/231/25 83/232/25
f 80/233/26 79/234/26 81/235/26 84/236/26
f 79/237/27 78/238/27 82/239/27 81/240/27
f 83/241/32 77/242/32 80/243/32 84/244/32
f 85/245/35 86/246/35 87/247/35 88/248/35
f 89/249/36 90/250/36 91/251/36 92/252/36
f 90/253/25 86/254/25 85/255/25 91/256/25
f 88/257/26 87/258/26 89/259/26 92/260/26
f 87/261/37 86/262/37 90/263/37 89/264/37
f 91/265/32 85/266/32 88/267/32 92/268/32
f 93/269/28 94/270/28 95/271/28 96/272/28
f 97/273/38 98/274/38 99/275/38 100/276/38
f 95/277/25 94/278/25 98/279/25 97/280/25
f 99/281/26 93/282/26 96/283/26 100/284/26
f 98/285/27 94/286/27 93/287/27 99/288/27
f 96/289/23 95/290/23 97/291/23 100/292/23
