# Blender v2.79 (sub 0) OBJ File: ''
# www.blender.org
mtllib pistol.mtl
o slide
v 0.031250 0.046875 -0.117188
v 0.031250 0.046875 0.125000
v 0.015625 0.062500 0.125000
v 0.015625 0.062500 -0.101562
v -0.015625 0.062500 0.125000
v -0.015625 0.062500 -0.101562
v -0.031250 0.046875 0.125000
v -0.031250 0.046875 -0.117188
v 0.031250 0.031250 0.125000
v -0.031250 0.031250 0.125000
v -0.031250 0.031250 -0.125000
v 0.031250 0.031250 -0.125000
v 0.015625 0.062500 0.125000
v 0.031250 0.046875 0.125000
v 0.031250 0.046875 -0.117188
v 0.015625 0.062500 -0.101562
v -0.015625 0.062500 -0.101562
v -0.031250 0.046875 -0.117188
v -0.031250 0.046875 0.125000
v -0.015625 0.062500 0.125000
v 0.031250 0.031250 -0.125000
v 0.031250 0.031250 0.125000
v -0.031250 0.031250 0.125000
v -0.031250 0.031250 -0.125000
vt 0.308594 0.000000
vt 0.066406 0.000000
vt 0.066406 0.062500
vt 0.292969 0.062500
vt 0.062500 0.250000
vt 0.062500 0.000000
vt 0.000000 0.000000
vt 0.000000 0.250000
vt 0.375000 0.015625
vt 0.312500 0.015625
vt 0.328125 0.031250
vt 0.359375 0.031250
vt 0.375000 0.071650
vt 0.312500 0.071650
vt 0.328125 0.093750
vt 0.359375 0.093750
vt 0.375000 0.000000
vt 0.312500 0.000000
vt 0.375000 0.054181
vt 0.312500 0.054181
vt 0.062500 0.125000
vt 0.304688 0.125000
vt 0.312500 0.062500
vt 0.062500 0.062500
vt 0.253906 0.812500
vt 0.253906 0.750000
vt 0.492188 0.750000
vt 0.476562 0.812500
vt 0.273438 0.875000
vt 0.257812 0.812500
vt 0.500000 0.812500
vt 0.500000 0.875000
vt 0.125000 0.625000
vt 0.187500 0.625000
vt 0.187500 0.875000
vt 0.125000 0.875000
vt 0.250000 0.625000
vt 0.250000 0.875000
vt 0.187500 0.875000
vt 0.187500 0.625000
vt 0.578125 0.875000
vt 0.562500 0.859375
vt 0.625000 0.859375
vt 0.609375 0.875000
vt 0.578125 1.000000
vt 0.562500 0.977900
vt 0.625000 0.977900
vt 0.609375 1.000000
vt 0.625000 0.843750
vt 0.562500 0.843750
vt 0.500000 0.937500
vt 0.500000 1.000000
vt 0.257812 1.000000
vt 0.250000 0.937500
vt 0.625000 0.960431
vt 0.562500 0.960431
vt 0.500000 0.875000
vt 0.492188 0.937500
vt 0.250000 0.937500
vn -0.7071 -0.7071 -0.0000
vn 0.0000 -1.0000 -0.0000
vn 0.0000 0.0000 -1.0000
vn 0.0000 -0.7071 0.7071
vn 0.0000 -0.4472 0.8944
vn -1.0000 0.0000 0.0000
vn 0.7071 0.7071 0.0000
vn -0.7071 0.7071 0.0000
vn 0.0000 1.0000 0.0000
vn 0.0000 0.0000 1.0000
vn 0.0000 0.7071 -0.7071
vn 0.0000 0.4472 -0.8944
vn 1.0000 0.0000 0.0000
usemtl m_29c3d2d8-9e1b-2884-6a77-de31baff4e4c
s 1
f 1/1/1 2/2/1 3/3/1 4/4/1
f 4/5/2 3/6/2 5/7/2 6/8/2
f 2/9/3 7/10/3 5/11/3 3/12/3
f 8/13/4 1/14/4 4/15/4 6/16/4
f 7/10/3 2/9/3 9/17/3 10/18/3
f 1/14/5 8/13/5 11/19/5 12/20/5
f 2/21/6 1/22/6 12/23/6 9/24/6
f 13/25/7 14/26/7 15/27/7 16/28/7
f 17/29/8 18/30/8 19/31/8 20/32/8
f 20/33/9 13/34/9 16/35/9 17/36/9
f 21/37/2 22/38/2 23/39/2 24/40/2
f 20/41/10 19/42/10 14/43/10 13/44/10
f 16/45/11 15/46/11 18/47/11 17/48/11
f 22/49/10 14/43/10 19/42/10 23/50/10
f 23/51/6 19/52/6 18/53/6 24/54/6
f 24/55/12 18/47/12 15/46/12 21/56/12
f 21/57/13 15/58/13 14/59/13 22/38/13
o cuboid
v 0.031250 0.000000 -0.109375
v 0.031250 0.000000 -0.046875
v 0.031250 -0.125000 -0.078125
v 0.031250 -0.125000 -0.140625
v -0.031250 -0.125000 -0.078125
v -0.031250 0.000000 -0.046875
v -0.031250 0.000000 -0.109375
v -0.031250 -0.125000 -0.140625
v 0.031250 0.000000 -0.132812
v 0.031250 0.015625 -0.117188
v 0.031250 0.015625 0.062500
v 0.031250 -0.000000 0.062500
v -0.031250 -0.000000 0.062500
v -0.031250 0.015625 0.062500
v -0.031250 0.015625 -0.117188
v -0.031250 0.000000 -0.132812
v -0.031250 0.031250 0.062500
v 0.031250 0.031250 0.062500
v 0.031250 0.031250 -0.125000
v -0.031250 0.031250 -0.125000
v 0.015625 0.000000 -0.062500
v 0.015625 0.000000 0.000000
v 0.015625 -0.031250 -0.015625
v 0.015625 -0.031250 -0.062500
v -0.015625 -0.031250 -0.015625
v -0.015625 0.000000 0.000000
v -0.015625 0.000000 -0.062500
v -0.015625 -0.031250 -0.062500
v 0.022097 0.039063 -0.101562
v 0.022097 0.039062 0.140625
v -0.000000 0.016965 0.140625
v -0.000000 0.016965 -0.101562
v -0.022097 0.039062 0.140625
v 0.000000 0.061160 0.140625
v 0.000000 0.061160 -0.101562
v -0.022097 0.039063 -0.101562
v 0.023438 -0.000000 0.062500
v 0.031250 0.015625 0.062500
v 0.031250 0.015625 0.125000
v 0.023438 -0.000000 0.093750
v -0.023438 -0.000000 0.093750
v -0.031250 0.015625 0.125000
v -0.031250 0.015625 0.062500
v -0.023438 -0.000000 0.062500
v -0.031250 0.031250 0.125000
v 0.031250 0.031250 0.125000
v 0.031250 0.031250 0.062500
v -0.031250 0.031250 0.062500
v 0.007812 0.058871 -0.130524
v 0.007812 0.042299 -0.113951
v 0.007812 0.031250 -0.125000
v 0.007812 0.047823 -0.141573
v -0.007812 0.031250 -0.125000
v -0.007812 0.042299 -0.113951
v -0.007812 0.058871 -0.130524
v -0.007812 0.047823 -0.141573
vt 0.250000 0.609841
vt 0.187500 0.625000
vt 0.187500 0.496153
vt 0.250000 0.480994
vt 0.026878 0.562500
vt 0.155724 0.562500
vt 0.140566 0.625000
vt 0.011719 0.625000
vt 0.062500 0.500000
vt 0.125000 0.500000
vt 0.125000 0.562500
vt 0.062500 0.562500
vt 0.187500 0.500000
vt 0.187500 0.562500
vt 0.125000 0.562500
vt 0.125000 0.500000
vt 0.437500 0.625000
vt 0.437500 0.750000
vt 0.375000 0.750000
vt 0.375000 0.625000
vt 0.437500 0.625000
vt 0.375000 0.625000
vt 0.375000 0.500000
vt 0.437500 0.500000
vt 0.644531 0.718750
vt 0.628906 0.734375
vt 0.449219 0.734375
vt 0.449219 0.718750
vt 0.644531 0.656250
vt 0.644531 0.671875
vt 0.464844 0.671875
vt 0.449219 0.656250
vt 0.250000 0.562500
vt 0.312500 0.562500
vt 0.312500 0.750000
vt 0.250000 0.750000
vt 0.375000 0.562500
vt 0.375000 0.750000
vt 0.312500 0.750000
vt 0.312500 0.562500
vt 0.187500 0.406250
vt 0.187500 0.421875
vt 0.125000 0.421875
vt 0.125000 0.406250
vt 0.375000 0.500000
vt 0.375000 0.562500
vt 0.312500 0.562500
vt 0.312500 0.500000
vt 0.449219 0.750000
vt 0.636719 0.750000
vt 0.250000 0.562500
vt 0.250000 0.500000
vt 0.312500 0.500000
vt 0.312500 0.562500
vt 0.457031 0.687500
vt 0.644531 0.687500
vt 0.125000 0.437500
vt 0.187500 0.437500
vt 0.500000 0.625000
vt 0.445312 0.625000
vt 0.457031 0.562500
vt 0.500000 0.562500
vt 0.480469 0.500000
vt 0.492188 0.562500
vt 0.437500 0.562500
vt 0.437500 0.500000
vt 0.500000 0.937500
vt 0.562500 0.937500
vt 0.562500 1.000000
vt 0.500000 1.000000
vt 0.125000 0.437500
vt 0.125000 0.500000
vt 0.062500 0.500000
vt 0.062500 0.437500
vt 0.187500 0.437500
vt 0.187500 0.500000
vt 0.125000 0.500000
vt 0.125000 0.437500
vt 0.562500 0.937500
vt 0.500000 0.937500
vt 0.500000 0.875000
vt 0.562500 0.875000
vt 0.250000 1.000000
vt 0.000000 1.000000
vt 0.000000 0.937500
vt 0.250000 0.937500
vt 0.250000 0.875000
vt 0.250000 0.937500
vt 0.000000 0.937500
vt 0.000000 0.875000
vt 0.000000 0.625000
vt 0.062500 0.625000
vt 0.062500 0.875000
vt 0.000000 0.875000
vt 0.125000 0.625000
vt 0.125000 0.875000
vt 0.062500 0.875000
vt 0.062500 0.625000
vt 0.562500 0.812500
vt 0.562500 0.875000
vt 0.500000 0.875000
vt 0.500000 0.812500
vt 0.562500 0.812500
vt 0.500000 0.812500
vt 0.500000 0.750000
vt 0.562500 0.750000
vt 0.125000 0.404406
vt 0.125000 0.421875
vt 0.062500 0.421875
vt 0.093750 0.404406
vt 0.593750 0.904406
vt 0.625000 0.921875
vt 0.562500 0.921875
vt 0.562500 0.904406
vt 0.250000 0.437500
vt 0.312500 0.437500
vt 0.312500 0.500000
vt 0.250000 0.500000
vt 0.054688 0.468750
vt 0.054688 0.500000
vt 0.007812 0.500000
vt 0.007812 0.468750
vt 0.062500 0.534944
vt 0.000000 0.534944
vt 0.242188 0.406250
vt 0.250000 0.421875
vt 0.187500 0.421875
vt 0.195312 0.406250
vt 0.062500 0.437500
vt 0.125000 0.437500
vt 0.187500 0.437500
vt 0.250000 0.437500
vt 0.562500 0.937500
vt 0.625000 0.937500
vt 0.312500 0.500000
vt 0.312500 0.437500
vt 0.375000 0.437500
vt 0.375000 0.500000
vt 0.062500 0.437500
vt 0.000000 0.437500
vt 0.000000 0.375000
vt 0.062500 0.375000
vt 0.562500 0.437500
vt 0.562500 0.500000
vt 0.500000 0.500000
vt 0.500000 0.437500
vt 0.375000 0.437500
vt 0.437500 0.437500
vt 0.437500 0.500000
vt 0.375000 0.500000
vt 0.562500 0.562500
vt 0.562500 0.625000
vt 0.500000 0.625000
vt 0.500000 0.562500
vt 0.500000 0.437500
vt 0.500000 0.500000
vt 0.437500 0.500000
vt 0.437500 0.437500
vt 0.562500 0.562500
vt 0.500000 0.562500
vt 0.500000 0.500000
vt 0.562500 0.500000
vn 1.0000 0.0000 0.0000
vn -1.0000 0.0000 0.0000
vn 0.0000 1.0000 0.0000
vn 0.0000 -1.0000 -0.0000
vn 0.0000 -0.2425 0.9701
vn 0.0000 0.2425 -0.9701
vn 0.0000 0.0000 1.0000
vn 0.0000 0.7071 -0.7071
vn 0.0000 -0.4472 -0.8944
vn 0.0000 -0.4472 0.8944
vn 0.0000 0.0000 -1.0000
vn 0.7071 -0.7071 -0.0000
vn -0.7071 0.7071 0.0000
vn 0.7071 0.7071 0.0000
vn -0.7071 -0.7071 -0.0000
vn 0.8944 -0.4472 -0.0000
vn -0.8944 -0.4472 -0.0000
vn 0.0000 -0.8944 0.4472
vn 0.0000 0.7071 0.7071
vn 0.0000 -0.7071 -0.7071
vn 0.0000 -0.7071 0.7071
usemtl m_29c3d2d8-9e1b-2884-6a77-de31baff4e4c
s 1
f 25/60/14 26/61/14 27/62/14 28/63/14
f 29/64/15 30/65/15 31/66/15 32/67/15
f 30/68/16 26/69/16 25/70/16 31/71/16
f 28/72/17 27/73/17 29/74/17 32/75/17
f 27/76/18 26/77/18 30/78/18 29/79/18
f 31/80/19 25/81/19 28/82/19 32/83/19
f 33/84/14 34/85/14 35/86/14 36/87/14
f 37/88/15 38/89/15 39/90/15 40/91/15
f 41/92/16 42/93/16 43/94/16 44/95/16
f 33/96/17 36/97/17 37/98/17 40/99/17
f 36/100/20 35/101/20 38/102/20 37/103/20
f 40/104/21 39/105/21 34/106/21 33/107/21
f 42/108/14 35/86/14 34/85/14 43/109/14
f 43/110/22 34/111/22 39/112/22 44/113/22
f 44/114/15 39/90/15 38/89/15 41/115/15
f 41/116/20 38/102/20 35/101/20 42/117/20
f 45/118/14 46/119/14 47/120/14 48/121/14
f 49/122/15 50/123/15 51/124/15 52/125/15
f 50/126/16 46/127/16 45/128/16 51/129/16
f 48/130/17 47/131/17 49/132/17 52/133/17
f 47/134/23 46/135/23 50/136/23 49/137/23
f 51/138/24 45/139/24 48/140/24 52/141/24
f 53/142/25 54/143/25 55/144/25 56/145/25
f 57/146/26 58/147/26 59/148/26 60/149/26
f 58/150/27 54/151/27 53/152/27 59/153/27
f 56/154/28 55/155/28 57/156/28 60/157/28
f 55/158/20 54/159/20 58/160/20 57/161/20
f 59/162/24 53/163/24 56/164/24 60/165/24
f 61/166/29 62/167/29 63/168/29 64/169/29
f 65/170/30 66/171/30 67/172/30 68/173/30
f 69/174/16 70/175/16 71/176/16 72/177/16
f 61/178/17 64/179/17 65/180/17 68/181/17
f 64/179/31 63/182/31 66/183/31 65/180/31
f 68/184/24 67/185/24 62/186/24 61/187/24
f 70/188/14 63/168/14 62/167/14 71/189/14
f 71/190/24 62/186/24 67/185/24 72/191/24
f 72/192/15 67/172/15 66/171/15 69/193/15
f 69/194/20 66/195/20 63/196/20 70/197/20
f 73/198/14 74/199/14 75/200/14 76/201/14
f 77/202/15 78/203/15 79/204/15 80/205/15
f 78/206/32 74/207/32 73/208/32 79/209/32
f 76/210/33 75/211/33 77/212/33 80/213/33
f 75/214/34 74/215/34 78/216/34 77/217/34
f 79/218/21 73/219/21 76/220/21 80/221/21
