# Blender v2.79 (sub 0) OBJ File: ''
# www.blender.org
mtllib bullet_grenade.mtl
o glow
v 0.047608 0.047608 -0.125000
v 0.063477 0.063477 -0.062500
v 0.063477 -0.063476 -0.062500
v 0.047608 -0.047607 -0.125000
v -0.047608 -0.047607 -0.125000
v -0.063476 -0.063476 -0.062500
v -0.063476 0.063477 -0.062500
v -0.047608 0.047608 -0.125000
v -0.047608 0.047607 0.125000
v -0.063476 0.063477 0.062500
v -0.063476 -0.063476 0.062500
v -0.047608 -0.047608 0.125000
v 0.063477 -0.063476 0.062500
v 0.047608 -0.047608 0.125000
v 0.063477 0.063477 0.062500
v 0.047608 0.047607 0.125000
vt 0.250000 0.625000
vt 0.187500 0.625000
vt 0.187500 0.500000
vt 0.250000 0.500000
vt 0.500000 0.687500
vt 0.562500 0.687500
vt 0.562500 0.812500
vt 0.500000 0.812500
vt 0.500000 0.625000
vt 0.500000 0.562500
vt 0.625000 0.562500
vt 0.625000 0.625000
vt 0.625000 0.437500
vt 0.625000 0.500000
vt 0.500000 0.500000
vt 0.500000 0.437500
vt 0.062500 0.437500
vt 0.000000 0.437500
vt 0.000000 0.312500
vt 0.062500 0.312500
vt 0.125000 0.437500
vt 0.125000 0.375000
vt 0.250000 0.375000
vt 0.250000 0.437500
vt 0.625000 0.687500
vt 0.687500 0.687500
vt 0.687500 0.812500
vt 0.625000 0.812500
vt 0.437500 0.312500
vt 0.437500 0.375000
vt 0.312500 0.375000
vt 0.312500 0.312500
vn 0.9692 0.0000 -0.2461
vn -0.9692 0.0000 -0.2461
vn 0.0000 0.9692 -0.2461
vn 0.0000 -0.9692 -0.2461
vn -0.9692 -0.0000 0.2461
vn 0.0000 -0.9692 0.2461
vn 0.9692 -0.0000 0.2461
vn 0.0000 0.9692 0.2461
usemtl m_3d415cd8-aa63-a4b4-8e04-a38a753c8575
s 1
f 1/1/1 2/2/1 3/3/1 4/4/1
f 5/5/2 6/6/2 7/7/2 8/8/2
f 8/9/3 7/10/3 2/11/3 1/12/3
f 4/13/4 3/14/4 6/15/4 5/16/4
f 9/17/5 10/18/5 11/19/5 12/20/5
f 12/21/6 11/22/6 13/23/6 14/24/6
f 14/25/7 13/26/7 15/27/7 16/28/7
f 16/29/8 15/30/8 10/31/8 9/32/8
o grenade
v 0.046875 0.046875 -0.125000
v 0.062500 0.062500 -0.062500
v 0.062500 -0.062500 -0.062500
v 0.046875 -0.046875 -0.125000
v -0.046875 -0.046875 -0.125000
v -0.062500 -0.062500 -0.062500
v -0.062500 0.062500 -0.062500
v -0.046875 0.046875 -0.125000
v 0.046875 -0.046875 0.125000
v 0.046875 0.046875 0.125000
v -0.046875 0.046875 0.125000
v -0.046875 -0.046875 0.125000
v -0.062500 -0.062500 0.062500
v -0.062500 0.062500 0.062500
v 0.062500 -0.062500 0.062500
v 0.062500 0.062500 0.062500
vt 0.250000 1.000000
vt 0.187500 1.000000
vt 0.187500 0.875000
vt 0.250000 0.875000
vt 0.000000 0.687500
vt 0.062500 0.687500
vt 0.062500 0.812500
vt 0.000000 0.812500
vt 0.312500 1.000000
vt 0.312500 0.937500
vt 0.437500 0.937500
vt 0.437500 1.000000
vt 0.437500 0.437500
vt 0.437500 0.500000
vt 0.312500 0.500000
vt 0.312500 0.437500
vt 0.125000 0.500000
vt 0.125000 0.625000
vt 0.000000 0.625000
vt 0.000000 0.500000
vt 0.625000 1.000000
vt 0.500000 1.000000
vt 0.500000 0.875000
vt 0.625000 0.875000
vt 0.187500 0.687500
vt 0.187500 0.812500
vt 0.437500 0.625000
vt 0.312500 0.625000
vt 0.062500 1.000000
vt 0.062500 0.875000
vt 0.312500 0.812500
vt 0.437500 0.812500
vt 0.250000 0.812500
vt 0.250000 0.687500
vt 0.312500 0.687500
vt 0.437500 0.687500
vt 0.000000 0.875000
vt 0.000000 1.000000
vt 0.437500 0.750000
vt 0.312500 0.750000
vn 0.9701 0.0000 -0.2425
vn -0.9701 0.0000 -0.2425
vn 0.0000 0.9701 -0.2425
vn 0.0000 -0.9701 -0.2425
vn 0.0000 -0.0000 1.0000
vn 0.0000 0.0000 -1.0000
vn -1.0000 0.0000 0.0000
vn 0.0000 -1.0000 -0.0000
vn 1.0000 0.0000 0.0000
vn 0.0000 1.0000 0.0000
vn -0.9701 -0.0000 0.2425
vn 0.0000 -0.9701 0.2425
vn 0.9701 -0.0000 0.2425
vn 0.0000 0.9701 0.2425
usemtl m_3d415cd8-aa63-a4b4-8e04-a38a753c8575
s 1
f 17/33/9 18/34/9 19/35/9 20/36/9
f 21/37/10 22/38/10 23/39/10 24/40/10
f 24/41/11 23/42/11 18/43/11 17/44/11
f 20/45/12 19/46/12 22/47/12 21/48/12
f 25/49/13 26/50/13 27/51/13 28/52/13
f 24/53/14 17/54/14 20/55/14 21/56/14
f 22/38/15 29/57/15 30/58/15 23/39/15
f 19/46/16 31/59/16 29/60/16 22/47/16
f 18/34/17 32/61/17 31/62/17 19/35/17
f 23/42/18 30/63/18 32/64/18 18/43/18
f 27/65/19 30/58/19 29/57/19 28/66/19
f 28/67/20 29/60/20 31/59/20 25/68/20
f 25/69/21 31/62/21 32/61/21 26/70/21
f 26/71/22 32/64/22 30/63/22 27/72/22
